<svg version="1.1" id="Layer_1" xmlns="http://www.w3.org/2000/svg" xmlns:xlink="http://www.w3.org/1999/xlink" x="0px" y="0px"
	 width="100%" viewBox="0 0 140 140" enable-background="new 0 0 140 140" xml:space="preserve">
<path fill="#FDFDFC" opacity="1.000000" stroke="none" 
	d="
M1.000000,112.000000 
	C1.000000,75.045906 1.000000,38.091805 1.000000,1.068854 
	C47.562786,1.068854 94.125702,1.068854 141.000000,1.068854 
	C141.000000,34.686920 141.000000,68.374802 140.560181,102.531403 
	C135.337097,102.663033 130.530380,102.502571 125.785995,101.872726 
	C124.495132,101.701347 122.752510,100.336342 122.336792,99.132530 
	C121.488457,96.675919 121.115860,93.963196 121.055092,91.344185 
	C120.892967,84.357285 121.112038,77.360878 120.908951,70.376114 
	C120.866020,68.899323 119.669434,67.456078 119.003532,65.664963 
	C119.003075,64.889275 119.003487,64.446007 119.394264,63.912647 
	C120.226234,61.010967 120.446564,58.142982 121.146469,55.397247 
	C124.834244,40.929901 122.868843,26.726950 119.313713,12.001578 
	C118.077835,12.746885 117.038918,13.373413 115.625015,13.999903 
	C114.500130,13.999839 113.750214,13.999813 112.938629,13.645117 
	C109.153648,11.669065 105.429031,8.768198 101.707390,8.772015 
	C97.668404,8.776157 92.234558,8.519271 89.646782,13.924868 
	C85.163002,12.659647 81.060600,11.401623 76.672981,9.903999 
	C72.910355,9.290744 69.432930,8.917089 65.590576,8.358706 
	C63.166317,8.718320 61.106991,9.262663 58.791298,9.711590 
	C58.047020,9.818721 57.559109,10.021267 56.708984,10.181263 
	C53.912357,11.236441 51.477943,12.334168 48.769829,13.565313 
	C47.733391,13.948144 46.970650,14.197557 46.120903,14.058685 
	C39.782074,8.328990 22.281395,9.345442 17.423149,15.372181 
	C16.807869,16.135447 16.309645,17.071226 16.022537,18.008371 
	C13.958258,24.746395 11.063984,31.386660 10.152240,38.285160 
	C8.727149,49.067772 3.608784,59.721043 7.958071,70.928528 
	C8.239221,71.653015 8.001185,72.580154 7.999528,73.413017 
	C7.985656,80.382774 7.653204,87.280205 4.350867,93.681114 
	C3.962829,94.433243 4.363396,95.589439 4.389627,96.558556 
	C4.512754,101.107483 4.784247,105.663155 4.584575,110.198006 
	C4.555867,110.850014 2.251326,111.401825 1.000000,112.000000 
z"/>
<path fill="#202929" opacity="1.000000" stroke="none" 
	d="
M141.000000,122.000000 
	C141.000000,128.292908 141.000000,134.585800 141.000000,141.000000 
	C124.645943,141.000000 108.291634,141.000000 91.467453,140.673706 
	C90.735817,139.567200 90.474045,138.787003 90.148407,137.624573 
	C90.402145,135.495941 90.719742,133.749512 91.283310,131.843399 
	C91.483688,130.800156 91.438095,129.916580 91.369614,128.757736 
	C91.517159,127.970985 91.687607,127.459518 92.164749,126.717224 
	C92.457527,125.756531 92.443604,125.026672 92.398407,123.992912 
	C92.579941,123.127098 92.792755,122.565178 93.186371,121.944489 
	C93.445107,121.787193 93.609009,121.653511 93.585655,121.596390 
	C93.498070,121.382263 93.349327,121.193146 93.195282,120.714600 
	C93.384636,119.930550 93.602196,119.426559 94.012589,118.893829 
	C94.295982,118.774025 94.480186,118.640114 94.461418,118.599075 
	C94.363380,118.384827 94.213783,118.194176 94.089188,117.581917 
	C94.488640,114.125160 94.881027,111.081818 95.593071,107.965912 
	C95.557457,106.953354 95.202171,106.013336 94.650116,105.041115 
	C94.453346,105.008904 94.061882,104.932854 94.104057,104.698929 
	C94.322800,104.176445 94.577164,104.000069 95.184891,103.870590 
	C95.929245,103.226891 96.398026,102.648491 97.148132,102.272385 
	C103.894089,105.851761 110.358727,109.228828 117.036896,112.790833 
	C117.793938,113.089928 118.337448,113.204086 119.124847,113.573166 
	C126.579155,116.552063 133.789581,119.276031 141.000000,122.000000 
z"/>
<path fill="#1F2828" opacity="1.000000" stroke="none" 
	d="
M52.000000,141.000000 
	C35.979103,141.000000 19.958210,141.000000 3.467607,140.543274 
	C2.681334,133.717560 2.364767,127.348541 2.043157,120.771561 
	C2.038114,120.563599 2.022101,120.147850 2.194767,120.007629 
	C2.367433,119.867401 2.810577,119.906517 3.169350,119.964279 
	C4.331834,119.641022 5.135546,119.260010 5.948830,118.935440 
	C5.958402,118.991890 5.899782,118.893524 6.202333,118.947144 
	C7.002873,118.706055 7.500861,118.411339 8.175062,117.982895 
	C8.351276,117.849174 8.790985,117.898056 9.102783,117.953247 
	C9.941493,117.727493 10.468405,117.446556 11.188225,117.032722 
	C11.381132,116.899826 11.848873,116.926605 12.206235,116.978493 
	C13.376460,116.658836 14.189323,116.287285 15.102790,115.801239 
	C15.203393,115.686737 15.498652,115.762566 15.787848,115.803177 
	C16.383553,115.626640 16.690062,115.409500 17.197483,115.055679 
	C17.398397,114.919006 17.883883,114.941162 18.240395,115.020401 
	C21.123276,114.796532 23.654390,114.209991 26.174980,114.252197 
	C30.730822,114.328484 34.843727,111.530571 36.279686,106.872612 
	C39.298256,105.238365 42.057392,103.854202 44.915932,102.793716 
	C45.638531,103.738350 46.261726,104.359306 46.849770,105.391747 
	C46.932682,106.883713 47.050747,107.964188 47.107292,109.461082 
	C47.828537,113.771446 48.758896,117.642738 49.360725,121.564453 
	C50.352295,128.025803 51.131359,134.519775 52.000000,141.000000 
z"/>
<path fill="#FBFBFA" opacity="1.000000" stroke="none" 
	d="
M15.498652,115.762566 
	C15.498652,115.762566 15.203393,115.686737 14.759095,115.762535 
	C13.492824,116.201088 12.670850,116.563850 11.848875,116.926605 
	C11.848873,116.926605 11.381132,116.899826 10.884193,116.990112 
	C9.855165,117.352951 9.323074,117.625504 8.790985,117.898056 
	C8.790985,117.898056 8.351276,117.849174 7.879098,117.937866 
	C6.904541,118.315552 6.402162,118.604538 5.899783,118.893524 
	C5.899782,118.893524 5.958402,118.991890 5.606194,118.890511 
	C4.439516,119.161591 3.625047,119.534058 2.810577,119.906517 
	C2.810577,119.906517 2.367433,119.867401 1.944504,119.933563 
	C1.347716,119.999817 1.173858,119.999908 1.000000,120.000000 
	C1.000000,117.629440 1.000000,115.258888 1.000000,112.444168 
	C2.251326,111.401825 4.555867,110.850014 4.584575,110.198006 
	C4.784247,105.663155 4.512754,101.107483 4.389627,96.558556 
	C4.363396,95.589439 3.962829,94.433243 4.350867,93.681114 
	C7.653204,87.280205 7.985656,80.382774 7.999528,73.413017 
	C8.001185,72.580154 8.239221,71.653015 7.958071,70.928528 
	C3.608784,59.721043 8.727149,49.067772 10.152240,38.285160 
	C11.063984,31.386660 13.958258,24.746395 16.022537,18.008371 
	C16.309645,17.071226 16.807869,16.135447 17.423149,15.372181 
	C22.281395,9.345442 39.782074,8.328990 46.014896,14.371964 
	C45.733467,15.665521 45.471027,16.257513 44.970711,16.920959 
	C44.140095,17.575041 43.547356,18.157671 43.008942,18.445169 
	C43.045265,17.750538 43.027267,17.351038 42.944031,16.601437 
	C42.087311,15.745683 41.279175,14.779876 40.507004,14.807824 
	C34.786633,15.014868 28.995348,14.992537 23.404093,16.014629 
	C21.658823,16.333668 19.391075,19.541098 19.198050,21.598528 
	C18.411642,29.980696 18.008833,38.431789 18.063782,46.853577 
	C18.209745,69.224655 18.666414,91.593697 18.800610,114.117889 
	C18.362436,114.495209 18.123158,114.718185 17.883881,114.941162 
	C17.883883,114.941162 17.398397,114.919006 16.908264,115.014420 
	C16.111635,115.327408 15.805143,115.544983 15.498652,115.762566 
z"/>
<path fill="#F9F9F9" opacity="1.000000" stroke="none" 
	d="
M141.000000,121.531731 
	C133.789581,119.276031 126.579155,116.552063 119.158455,113.159302 
	C118.965576,111.660332 118.982964,110.830170 119.253967,109.799950 
	C119.005455,108.733063 118.503334,107.866226 118.001877,106.595047 
	C118.265503,102.834534 118.784515,99.474960 118.739738,96.122902 
	C118.636734,88.411720 118.259445,80.704201 117.994186,72.567093 
	C117.995186,70.426025 117.995461,68.713051 118.215729,66.891174 
	C118.709648,66.581772 118.899200,66.320145 119.004395,65.997383 
	C119.669434,67.456078 120.866020,68.899323 120.908951,70.376114 
	C121.112038,77.360878 120.892967,84.357285 121.055092,91.344185 
	C121.115860,93.963196 121.488457,96.675919 122.336792,99.132530 
	C122.752510,100.336342 124.495132,101.701347 125.785995,101.872726 
	C130.530380,102.502571 135.337097,102.663033 140.560181,103.000061 
	C141.000000,109.021156 141.000000,115.042305 141.000000,121.531731 
z"/>
<path fill="#E8E8E8" opacity="1.000000" stroke="none" 
	d="
M94.061882,104.932854 
	C94.061882,104.932854 94.453346,105.008904 94.681900,105.418777 
	C95.031433,106.565262 95.152420,107.301865 95.273407,108.038467 
	C94.881027,111.081818 94.488640,114.125160 93.928482,117.786835 
	C93.780396,118.577621 93.800079,118.750092 93.819763,118.922569 
	C93.602196,119.426559 93.384636,119.930550 93.048203,120.946754 
	C92.954750,121.640396 92.980156,121.821823 93.005569,122.003258 
	C92.792755,122.565178 92.579941,123.127098 92.195869,124.281281 
	C91.969093,125.565048 91.913567,126.256554 91.858047,126.948051 
	C91.687607,127.459518 91.517159,127.970985 91.171356,129.092850 
	C91.009781,130.469864 91.023567,131.236465 91.037338,132.003082 
	C90.719742,133.749512 90.402145,135.495941 89.982864,137.976105 
	C89.920792,139.473221 89.960396,140.236603 90.000000,141.000000 
	C84.311958,141.000000 78.623917,141.000000 72.478027,140.746826 
	C71.999763,140.325958 71.979362,140.158264 72.191925,139.723770 
	C75.326881,137.303696 78.228867,135.150452 81.935295,132.400299 
	C78.515961,130.315109 75.759422,128.634109 73.002930,126.633331 
	C73.003502,125.887146 73.004021,125.460747 73.314789,124.886978 
	C77.437042,121.841301 81.249046,118.943016 85.352539,115.884361 
	C88.449966,112.126945 91.255920,108.529900 94.061882,104.932854 
z"/>
<path fill="#E3E2E1" opacity="1.000000" stroke="none" 
	d="
M73.004539,125.034355 
	C73.004021,125.460747 73.003502,125.887146 72.622047,126.754959 
	C68.969673,128.372864 65.698235,129.549332 62.143044,130.829147 
	C61.810562,131.835785 61.421375,132.910400 61.774235,133.611633 
	C63.047729,136.142395 64.571030,138.547470 66.000000,141.000000 
	C61.643101,141.000000 57.286201,141.000000 52.464653,141.000000 
	C51.131359,134.519775 50.352295,128.025803 49.360725,121.564453 
	C48.758896,117.642738 47.828537,113.771446 47.406197,109.498795 
	C48.512333,109.400192 49.258041,109.680283 50.238251,110.167862 
	C51.234585,110.998390 51.996418,111.621429 52.839485,112.574661 
	C58.130074,119.407257 64.161888,124.547874 73.004539,125.034355 
z"/>
<path fill="#433C39" opacity="1.000000" stroke="none" 
	d="
M66.428467,141.000000 
	C64.571030,138.547470 63.047729,136.142395 61.774235,133.611633 
	C61.421375,132.910400 61.810562,131.835785 62.581051,130.899902 
	C66.399612,131.412369 69.512390,131.684814 69.219498,136.277679 
	C69.144592,137.452316 70.993767,138.749634 71.958961,139.990585 
	C71.979362,140.158264 71.999763,140.325958 72.010086,140.746826 
	C70.285645,141.000000 68.571281,141.000000 66.428467,141.000000 
z"/>
<path fill="#303635" opacity="1.000000" stroke="none" 
	d="
M2.048201,120.979530 
	C2.364767,127.348541 2.681334,133.717560 2.998949,140.543274 
	C2.333331,140.360504 1.105529,139.735977 1.087984,139.079147 
	C0.935455,133.368759 1.000000,127.652557 1.262172,121.470154 
	C1.698963,120.994659 1.873582,120.987091 2.048201,120.979530 
z"/>
<path fill="#3D4140" opacity="1.000000" stroke="none" 
	d="
M90.250000,141.000000 
	C89.960396,140.236603 89.920792,139.473221 90.046730,138.358307 
	C90.474045,138.787003 90.735817,139.567200 90.998795,140.673706 
	C91.000000,141.000000 90.500000,141.000000 90.250000,141.000000 
z"/>
<path fill="#373C3C" opacity="1.000000" stroke="none" 
	d="
M2.043157,120.771561 
	C1.873582,120.987091 1.698963,120.994659 1.262172,121.001114 
	C1.000000,121.000000 1.000000,120.500000 1.000000,120.250000 
	C1.173858,119.999908 1.347716,119.999817 1.771838,120.073784 
	C2.022101,120.147850 2.038114,120.563599 2.043157,120.771561 
z"/>
<path fill="#1D2626" opacity="1.000000" stroke="none" 
	d="
M42.954617,18.740301 
	C43.547356,18.157671 44.140095,17.575041 45.184395,17.107384 
	C49.641903,18.539036 48.725449,15.430552 49.043530,13.431894 
	C51.477943,12.334168 53.912357,11.236441 56.835423,10.374964 
	C57.898605,10.343144 58.473137,10.075075 59.047668,9.807005 
	C61.106991,9.262663 63.166317,8.718320 65.737869,8.694674 
	C69.819466,9.524779 73.388832,9.834189 76.958191,10.143600 
	C81.060600,11.401623 85.163002,12.659647 89.581757,14.010217 
	C89.898109,14.102763 89.903984,14.317268 89.931412,14.664999 
	C92.527672,19.349089 95.096497,23.685450 97.899826,28.330215 
	C98.097900,29.405132 98.061478,30.171644 98.016449,31.245907 
	C98.340431,32.036354 98.672997,32.519047 99.056358,33.371819 
	C99.614441,36.222702 100.121742,38.703506 100.166107,41.126816 
	C98.467644,41.046803 97.232101,41.024284 95.919014,40.691769 
	C95.775970,39.960979 95.710480,39.540184 95.954971,38.945908 
	C95.820335,37.863316 95.375710,36.954205 94.962860,36.023281 
	C94.994644,36.001472 94.954033,36.066982 94.933075,35.748234 
	C94.319855,34.938049 93.727577,34.446613 92.816994,33.821205 
	C89.678276,32.057739 86.857880,30.428234 83.886055,28.528217 
	C82.167458,28.181999 80.600281,28.106297 78.668411,28.018145 
	C76.535080,29.003611 74.766449,30.001526 72.627884,31.023010 
	C67.189537,33.802864 61.988346,35.961605 55.991867,35.310146 
	C55.389980,35.244762 54.655941,36.395817 53.660583,37.008427 
	C52.586689,37.421490 51.835442,37.808453 50.671700,38.139462 
	C47.705334,38.564667 45.151474,39.045826 41.973660,39.644547 
	C41.973660,41.795204 41.973660,43.902702 41.749866,46.152241 
	C41.675175,46.859486 41.824276,47.424694 41.979252,48.373901 
	C41.672180,50.512917 41.359238,52.267925 40.600571,54.077950 
	C39.864841,54.207397 39.574841,54.281837 39.122398,54.048622 
	C38.332325,50.820248 37.704689,47.899529 37.363228,44.688053 
	C39.121235,37.603245 40.593063,30.809195 42.370789,23.956173 
	C42.324173,23.236912 41.971661,22.576622 41.695282,21.574425 
	C42.165813,20.401777 42.560215,19.571039 42.954617,18.740301 
M85.603340,21.799774 
	C85.212402,21.795391 84.821472,21.791008 84.430534,21.786623 
	C84.429115,21.948908 84.416702,22.252207 84.427864,22.253075 
	C84.816803,22.283401 85.207947,22.285233 85.603340,21.799774 
z"/>
<path fill="#F9F9F9" opacity="1.000000" stroke="none" 
	d="
M116.000000,13.999940 
	C117.038918,13.373413 118.077835,12.746885 119.313713,12.001578 
	C122.868843,26.726950 124.834244,40.929901 121.146469,55.397247 
	C120.446564,58.142982 120.226234,61.010967 119.392563,63.536137 
	C118.995850,62.496872 118.991211,61.744022 118.988892,60.618431 
	C118.989677,59.499950 118.988152,58.754208 119.001022,57.589989 
	C119.342903,53.448433 119.670387,49.725357 119.998528,45.533867 
	C119.998840,39.042950 119.998505,33.020443 119.997513,26.600014 
	C118.664680,22.801176 117.332497,19.400263 116.000183,15.666445 
	C116.000038,14.889005 116.000023,14.444472 116.000000,13.999940 
z"/>
<path fill="#F9F9F9" opacity="1.000000" stroke="none" 
	d="
M89.963135,14.017414 
	C92.234558,8.519271 97.668404,8.776157 101.707390,8.772015 
	C105.429031,8.768198 109.153648,11.669065 112.687920,13.645431 
	C112.331764,14.001175 112.164635,14.001936 111.644348,14.007494 
	C110.527351,14.674363 109.763535,15.336434 108.666779,15.998544 
	C107.889946,15.998242 107.446045,15.997903 106.997253,15.664389 
	C106.633163,14.702427 106.273972,14.073641 105.914780,13.444855 
	C105.609962,13.964060 105.305138,14.483267 104.749985,15.002293 
	C104.332748,15.001847 104.165855,15.001584 103.890671,14.782271 
	C103.582886,14.290263 103.322090,14.102383 102.715363,13.709520 
	C99.206154,13.619989 95.446556,10.858987 92.632645,15.086214 
	C91.506500,14.800114 90.705246,14.558691 89.903984,14.317268 
	C89.903984,14.317268 89.898109,14.102763 89.963135,14.017414 
z"/>
<path fill="#303635" opacity="1.000000" stroke="none" 
	d="
M76.672981,9.903999 
	C73.388832,9.834189 69.819466,9.524779 66.102814,8.879402 
	C69.432930,8.917089 72.910355,9.290744 76.672981,9.903999 
z"/>
<path fill="#F4F5F4" opacity="1.000000" stroke="none" 
	d="
M118.986572,60.991169 
	C118.991211,61.744022 118.995850,62.496872 119.002197,63.626236 
	C119.003487,64.446007 119.003075,64.889275 119.003525,65.664963 
	C118.899200,66.320145 118.709648,66.581772 117.863068,66.827209 
	C114.728821,64.009956 116.145653,62.295197 118.986572,60.991169 
z"/>
<path fill="#303635" opacity="1.000000" stroke="none" 
	d="
M48.769829,13.565312 
	C48.725449,15.430552 49.641903,18.539036 45.422272,17.035933 
	C45.471027,16.257513 45.733467,15.665521 46.101906,14.760248 
	C46.970650,14.197557 47.733391,13.948144 48.769829,13.565312 
z"/>
<path fill="#F7F7F7" opacity="1.000000" stroke="none" 
	d="
M111.997513,14.002698 
	C112.164635,14.001936 112.331764,14.001175 112.749596,14.000099 
	C113.750214,13.999813 114.500130,13.999839 115.625015,13.999903 
	C116.000023,14.444472 116.000038,14.889005 115.624481,15.665897 
	C114.165100,15.333071 113.081306,14.667885 111.997513,14.002698 
z"/>
<path fill="#303635" opacity="1.000000" stroke="none" 
	d="
M58.791298,9.711590 
	C58.473137,10.075075 57.898605,10.343144 57.197636,10.417513 
	C57.559109,10.021267 58.047020,9.818721 58.791298,9.711590 
z"/>
<path fill="#EEEFEF" opacity="1.000000" stroke="none" 
	d="
M118.988892,60.618431 
	C116.145653,62.295197 114.728821,64.009956 117.643066,66.936111 
	C117.995461,68.713051 117.995186,70.426025 117.631805,72.634674 
	C116.178963,77.304024 115.250114,81.529366 113.932770,85.629906 
	C113.257507,87.731827 112.331558,90.141258 110.736023,91.475632 
	C107.764534,93.960762 107.180908,98.709946 110.248764,101.107208 
	C114.023788,104.057076 117.043022,107.393204 116.823364,112.605896 
	C110.358727,109.228828 103.894089,105.851761 97.016853,101.941986 
	C93.646965,100.736008 92.857246,98.772514 93.625450,95.883659 
	C93.975288,95.230721 94.095139,94.712685 94.544403,94.084473 
	C96.255302,89.990173 97.636795,86.006058 99.355492,81.952774 
	C100.764801,80.320755 101.836899,78.757904 102.938141,76.833115 
	C102.629852,75.640793 102.292427,74.810417 101.954132,73.527115 
	C101.990791,70.050568 102.028313,67.026947 102.436981,63.917870 
	C103.088173,60.747036 103.334488,57.658154 103.655006,54.576992 
	C104.417419,47.247932 105.621620,39.937115 105.885086,32.591587 
	C106.154190,25.088781 101.858551,19.604713 95.473236,18.055305 
	C94.981537,17.782469 94.875298,17.514065 95.020432,16.780594 
	C97.735130,15.922637 100.368477,15.462451 103.251114,15.002188 
	C103.500397,15.002111 103.998970,15.001321 103.998970,15.001321 
	C104.165855,15.001584 104.332748,15.001847 104.918121,15.246645 
	C105.891769,15.659972 106.446953,15.828768 107.002136,15.997563 
	C107.446045,15.997903 107.889946,15.998242 108.887482,16.268663 
	C115.742661,17.204531 115.776253,22.997639 117.998947,27.468409 
	C117.999100,33.957813 117.999092,39.978958 117.706612,46.290047 
	C117.560608,50.441444 114.949066,54.682388 118.986618,58.008465 
	C118.988152,58.754208 118.989677,59.499950 118.988892,60.618431 
z"/>
<path fill="#F4F5F4" opacity="1.000000" stroke="none" 
	d="
M117.036896,112.790833 
	C117.043022,107.393204 114.023788,104.057076 110.248764,101.107208 
	C107.180908,98.709946 107.764534,93.960762 110.736023,91.475632 
	C112.331558,90.141258 113.257507,87.731827 113.932770,85.629906 
	C115.250114,81.529366 116.178963,77.304024 117.631073,73.062775 
	C118.259445,80.704201 118.636734,88.411720 118.739738,96.122902 
	C118.784515,99.474960 118.265503,102.834534 118.003357,106.933044 
	C118.336235,108.450256 118.668297,109.225128 119.000359,110.000000 
	C118.982964,110.830170 118.965576,111.660332 118.914566,112.904373 
	C118.337448,113.204086 117.793938,113.089928 117.036896,112.790833 
z"/>
<path fill="#B99283" opacity="1.000000" stroke="none" 
	d="
M94.104057,104.698929 
	C91.255920,108.529900 88.449966,112.126945 84.968002,115.868332 
	C81.740608,116.899635 79.189232,117.786591 75.931580,118.919075 
	C75.931580,116.639122 75.931580,114.875031 76.327065,113.054153 
	C81.302734,111.828331 86.649467,111.653641 87.232788,104.764214 
	C89.845749,103.253937 92.082878,99.562500 94.909309,103.935883 
	C94.577164,104.000069 94.322800,104.176445 94.104057,104.698929 
z"/>
<path fill="#66544D" opacity="1.000000" stroke="none" 
	d="
M95.184891,103.870590 
	C92.082878,99.562500 89.845749,103.253937 86.895737,104.779556 
	C85.304565,105.418198 84.246315,105.759773 83.016846,105.854691 
	C82.529968,105.367668 82.214325,105.127312 81.981064,104.576500 
	C82.763634,103.229424 83.463814,102.192810 84.530365,101.108398 
	C86.959908,99.445518 89.023079,97.830444 91.467758,96.151711 
	C92.364670,96.064888 92.880058,96.041725 93.395454,96.018570 
	C92.857246,98.772514 93.646965,100.736008 96.735519,101.739685 
	C96.398026,102.648491 95.929245,103.226891 95.184891,103.870590 
z"/>
<path fill="#3D4140" opacity="1.000000" stroke="none" 
	d="
M95.593071,107.965912 
	C95.152420,107.301865 95.031433,106.565262 94.878662,105.450989 
	C95.202171,106.013336 95.557457,106.953354 95.593071,107.965912 
z"/>
<path fill="#3D4140" opacity="1.000000" stroke="none" 
	d="
M91.283310,131.843399 
	C91.023567,131.236465 91.009781,130.469864 91.194252,129.368134 
	C91.438095,129.916580 91.483688,130.800156 91.283310,131.843399 
z"/>
<path fill="#3D4140" opacity="1.000000" stroke="none" 
	d="
M92.164742,126.717224 
	C91.913567,126.256554 91.969093,125.565048 92.227142,124.585182 
	C92.443604,125.026672 92.457527,125.756531 92.164742,126.717224 
z"/>
<path fill="#3D4140" opacity="1.000000" stroke="none" 
	d="
M94.012589,118.893829 
	C93.800079,118.750092 93.780396,118.577621 93.921417,118.200241 
	C94.213783,118.194176 94.363380,118.384827 94.461418,118.599075 
	C94.480186,118.640114 94.295982,118.774025 94.012589,118.893829 
z"/>
<path fill="#3D4140" opacity="1.000000" stroke="none" 
	d="
M93.186371,121.944489 
	C92.980156,121.821823 92.954750,121.640396 93.076424,121.226807 
	C93.349327,121.193146 93.498070,121.382263 93.585655,121.596390 
	C93.609009,121.653511 93.445107,121.787193 93.186371,121.944489 
z"/>
<path fill="#E9E9E9" opacity="1.000000" stroke="none" 
	d="
M43.008942,18.445169 
	C42.560215,19.571039 42.165813,20.401777 41.466377,21.754503 
	C41.089867,22.845398 41.018387,23.414307 40.686981,24.220161 
	C37.898960,31.067272 34.609550,37.553154 37.077053,44.978809 
	C37.704689,47.899529 38.332325,50.820248 39.040535,54.153114 
	C39.121109,54.565258 39.157166,54.828449 39.079247,55.169312 
	C35.751587,60.233894 35.322300,65.179184 37.678432,70.428246 
	C38.063442,71.285980 38.016788,72.381126 38.008152,73.365120 
	C37.927395,82.566246 41.841419,90.423729 46.237366,98.447739 
	C45.740639,100.012009 45.278584,101.241028 44.816528,102.470047 
	C42.057392,103.854202 39.298256,105.238365 35.916534,106.861778 
	C30.840555,108.993347 26.387157,110.885666 21.956600,112.296791 
	C23.418007,103.689735 24.655521,95.667992 23.132389,87.275284 
	C21.761309,79.720390 21.276127,71.942879 21.111700,64.248360 
	C20.949612,56.663185 21.500927,49.045662 22.060911,41.466099 
	C22.942003,29.540268 32.198917,18.871851 43.009270,16.951538 
	C43.027267,17.351038 43.045265,17.750538 43.008942,18.445169 
z"/>
<path fill="#373C3C" opacity="1.000000" stroke="none" 
	d="
M21.933760,112.777992 
	C26.387157,110.885666 30.840555,108.993347 35.657101,107.111862 
	C34.843727,111.530571 30.730822,114.328484 26.174980,114.252197 
	C23.654390,114.209991 21.123276,114.796532 18.240391,115.020401 
	C18.123158,114.718185 18.362436,114.495209 19.078121,114.138535 
	C20.347605,113.595879 21.140682,113.186935 21.933760,112.777992 
z"/>
<path fill="#3D4140" opacity="1.000000" stroke="none" 
	d="
M44.915932,102.793724 
	C45.278584,101.241028 45.740639,100.012009 46.499321,98.495453 
	C47.149654,98.193916 47.503357,98.179909 48.065701,98.272064 
	C48.532791,98.560051 48.747276,98.783981 48.902359,99.283798 
	C48.886925,99.517586 48.882053,99.986137 48.609146,100.140488 
	C48.248363,101.564720 48.160488,102.834602 47.963249,104.352325 
	C47.530895,104.726852 47.207909,104.853554 46.884922,104.980255 
	C46.261726,104.359306 45.638531,103.738350 44.915932,102.793724 
z"/>
<path fill="#C2BBB8" opacity="1.000000" stroke="none" 
	d="
M46.849770,105.391747 
	C47.207909,104.853554 47.530895,104.726852 48.227722,104.427216 
	C49.096848,104.781639 49.592144,105.308990 50.041866,106.247498 
	C49.998775,107.759224 50.001263,108.859795 50.003750,109.960373 
	C49.258041,109.680283 48.512333,109.400192 47.467720,109.082382 
	C47.050747,107.964188 46.932682,106.883713 46.849770,105.391747 
z"/>
<path fill="#373C3C" opacity="1.000000" stroke="none" 
	d="
M3.169350,119.964279 
	C3.625047,119.534058 4.439516,119.161591 5.596622,118.834061 
	C5.135546,119.260010 4.331834,119.641022 3.169350,119.964279 
z"/>
<path fill="#373C3C" opacity="1.000000" stroke="none" 
	d="
M12.206236,116.978500 
	C12.670850,116.563850 13.492824,116.201088 14.658492,115.877037 
	C14.189323,116.287285 13.376460,116.658836 12.206236,116.978500 
z"/>
<path fill="#373C3C" opacity="1.000000" stroke="none" 
	d="
M6.202334,118.947144 
	C6.402162,118.604538 6.904541,118.315552 7.702884,118.071594 
	C7.500861,118.411339 7.002873,118.706055 6.202334,118.947144 
z"/>
<path fill="#373C3C" opacity="1.000000" stroke="none" 
	d="
M9.102783,117.953247 
	C9.323074,117.625504 9.855165,117.352951 10.691286,117.123009 
	C10.468405,117.446556 9.941493,117.727493 9.102783,117.953247 
z"/>
<path fill="#373C3C" opacity="1.000000" stroke="none" 
	d="
M15.787848,115.803177 
	C15.805143,115.544983 16.111635,115.327408 16.707348,115.151093 
	C16.690062,115.409500 16.383553,115.626640 15.787848,115.803177 
z"/>
<path fill="#F1F2F2" opacity="1.000000" stroke="none" 
	d="
M21.956600,112.296791 
	C21.140682,113.186935 20.347605,113.595879 19.277016,113.984192 
	C18.666414,91.593697 18.209745,69.224655 18.063782,46.853577 
	C18.008833,38.431789 18.411642,29.980696 19.198050,21.598528 
	C19.391075,19.541098 21.658823,16.333668 23.404093,16.014629 
	C28.995348,14.992537 34.786633,15.014868 40.507004,14.807824 
	C41.279175,14.779876 42.087311,15.745683 42.944031,16.601437 
	C32.198917,18.871851 22.942003,29.540268 22.060911,41.466099 
	C21.500927,49.045662 20.949612,56.663185 21.111700,64.248360 
	C21.276127,71.942879 21.761309,79.720390 23.132389,87.275284 
	C24.655521,95.667992 23.418007,103.689735 21.956600,112.296791 
z"/>
<path fill="#F7F7F7" opacity="1.000000" stroke="none" 
	d="
M119.253967,109.799950 
	C118.668297,109.225128 118.336235,108.450256 118.002701,107.337387 
	C118.503334,107.866226 119.005455,108.733063 119.253967,109.799950 
z"/>
<path fill="#CBAB9F" opacity="1.000000" stroke="none" 
	d="
M75.931580,113.110939 
	C75.931580,114.875031 75.931580,116.639122 75.931580,118.919075 
	C79.189232,117.786591 81.740608,116.899635 84.676529,116.028702 
	C81.249046,118.943016 77.437042,121.841301 73.314789,124.886978 
	C64.161888,124.547874 58.130074,119.407257 53.215847,112.524368 
	C55.820892,113.187447 58.056152,114.550438 60.477688,115.116409 
	C61.438107,115.340881 62.811954,113.796501 64.349609,113.049377 
	C65.163315,112.968414 65.624977,112.895538 66.512665,112.856133 
	C68.932106,112.887177 70.925514,112.884743 73.165344,112.890228 
	C73.744919,112.809143 74.004921,112.619751 74.490723,112.309715 
	C75.188713,112.275406 75.587753,112.261330 75.950714,112.461761 
	C75.914635,112.676254 75.931580,113.110939 75.931580,113.110939 
z"/>
<path fill="#734340" opacity="1.000000" stroke="none" 
	d="
M72.191925,139.723770 
	C70.993767,138.749634 69.144592,137.452316 69.219498,136.277679 
	C69.512390,131.684814 66.399612,131.412369 62.864792,130.796570 
	C65.698235,129.549332 68.969673,128.372864 72.621994,127.074753 
	C75.759422,128.634109 78.515961,130.315109 81.935295,132.400299 
	C78.228867,135.150452 75.326881,137.303696 72.191925,139.723770 
z"/>
<path fill="#B99283" opacity="1.000000" stroke="none" 
	d="
M63.997570,113.057465 
	C62.811954,113.796501 61.438107,115.340881 60.477688,115.116409 
	C58.056152,114.550438 55.820892,113.187447 53.134617,112.194183 
	C51.996418,111.621429 51.234585,110.998390 50.238251,110.167862 
	C50.001263,108.859795 49.998775,107.759224 50.387054,106.295197 
	C52.214420,106.574356 53.651024,107.216949 55.305046,107.967888 
	C55.797932,108.267822 55.993153,108.521233 56.123672,109.186279 
	C57.751320,110.054054 59.363422,110.572014 61.302776,111.105438 
	C62.415382,111.421425 63.200737,111.721939 63.989086,112.281204 
	C63.993908,112.712463 63.995739,112.884964 63.997570,113.057465 
z"/>
<path fill="#E8E9E8" opacity="1.000000" stroke="none" 
	d="
M95.688675,18.127033 
	C101.858551,19.604713 106.154190,25.088781 105.885086,32.591587 
	C105.621620,39.937115 104.417419,47.247932 103.655006,54.576992 
	C103.334488,57.658154 103.088173,60.747036 102.379913,63.496002 
	C101.213966,60.785709 100.476227,58.411823 99.663773,55.617897 
	C99.935722,50.526672 100.282379,45.855488 100.629044,41.184307 
	C100.121742,38.703506 99.614441,36.222702 99.224670,33.191948 
	C98.903137,32.074047 98.464096,31.506100 98.025047,30.938154 
	C98.061478,30.171644 98.097900,29.405132 97.925980,27.920197 
	C97.041313,24.176859 96.364998,21.151947 95.688675,18.127033 
z"/>
<path fill="#9B7668" opacity="1.000000" stroke="none" 
	d="
M84.037476,28.798729 
	C86.857880,30.428234 89.678276,32.057739 92.843597,34.138134 
	C93.777023,35.081680 94.365532,35.574329 94.954033,36.066982 
	C94.954033,36.066982 94.994644,36.001472 94.986984,36.350498 
	C95.201202,37.506145 95.423096,38.312767 95.644989,39.119389 
	C95.710480,39.540184 95.775970,39.960979 95.867928,41.110123 
	C96.509537,44.739574 97.124695,47.640686 97.522598,50.727356 
	C97.212715,51.274082 97.120071,51.635250 97.003464,52.415989 
	C96.930763,54.232933 96.882050,55.630306 96.527603,57.020409 
	C95.813217,57.011723 95.404541,57.010300 94.760315,56.862694 
	C94.356972,56.207222 94.189186,55.697933 93.905609,54.879601 
	C92.865715,53.439800 91.941620,52.309032 91.166702,50.813339 
	C94.629120,44.775597 93.843643,37.703209 88.766266,34.546707 
	C86.374992,33.060097 82.886459,33.338474 80.084869,32.614384 
	C81.528900,31.207371 82.783188,30.003050 84.037476,28.798729 
z"/>
<path fill="#8C6C60" opacity="1.000000" stroke="none" 
	d="
M41.046295,54.022938 
	C41.359238,52.267925 41.672180,50.512917 42.199844,48.232819 
	C42.267597,47.141888 42.120628,46.576042 41.973660,46.010201 
	C41.973660,43.902702 41.973660,41.795204 41.973660,39.644547 
	C45.151474,39.045826 47.705334,38.564667 50.648468,38.511871 
	C50.800171,39.530586 50.687763,40.534111 50.306374,40.649635 
	C44.066563,42.539661 46.145294,47.246143 46.312031,51.710785 
	C47.983765,51.858669 49.420746,51.985786 50.904751,52.406101 
	C51.004051,53.092789 51.056328,53.486282 50.675392,53.935341 
	C47.929775,54.322346 44.445129,52.903877 44.807854,57.730503 
	C43.757957,58.330330 42.894211,58.706245 42.019054,58.741035 
	C41.685265,57.608475 41.362881,56.817043 41.070133,55.692169 
	C41.081940,54.913464 41.064117,54.468201 41.046295,54.022938 
z"/>
<path fill="#B99283" opacity="1.000000" stroke="none" 
	d="
M50.857727,52.112904 
	C49.420746,51.985786 47.983765,51.858669 46.312031,51.710785 
	C46.145294,47.246143 44.066563,42.539661 50.306374,40.649635 
	C50.687763,40.534111 50.800171,39.530586 51.060966,38.567825 
	C51.835442,37.808453 52.586689,37.421490 53.885643,37.159473 
	C54.619816,37.589298 54.806274,37.894176 54.915169,38.555702 
	C53.510975,43.312538 52.184353,47.712723 50.857727,52.112904 
z"/>
<path fill="#7C665D" opacity="1.000000" stroke="none" 
	d="
M54.992737,38.199051 
	C54.806274,37.894176 54.619816,37.589298 54.208294,37.133377 
	C54.655941,36.395817 55.389980,35.244762 55.991867,35.310146 
	C61.988346,35.961605 67.189537,33.802864 72.852776,31.306084 
	C74.629852,31.722010 75.812103,31.878429 76.993706,32.268181 
	C76.993065,32.501518 76.997246,32.968178 76.934280,33.165752 
	C76.871307,33.363327 76.777214,33.767246 76.375198,33.785454 
	C69.729286,34.937088 63.481625,36.050594 57.246239,37.229023 
	C56.461971,37.377239 55.742321,37.867348 54.992737,38.199051 
z"/>
<path fill="#293131" opacity="1.000000" stroke="none" 
	d="
M97.739853,50.541794 
	C97.124695,47.640686 96.509537,44.739574 95.945473,41.420113 
	C97.232101,41.024284 98.467644,41.046803 100.166115,41.126816 
	C100.282379,45.855488 99.935722,50.526672 99.463432,55.858883 
	C98.557472,57.018425 97.777145,57.516937 96.981201,57.764328 
	C96.921501,57.351360 96.877419,57.189518 96.833328,57.027676 
	C96.882050,55.630306 96.930763,54.232933 97.234558,52.241810 
	C97.573029,51.279301 97.656441,50.910549 97.739853,50.541794 
z"/>
<path fill="#373C3C" opacity="1.000000" stroke="none" 
	d="
M37.363228,44.688053 
	C34.609550,37.553154 37.898960,31.067272 40.966591,24.224224 
	C41.692383,23.999275 41.878639,24.007210 42.064896,24.015144 
	C40.593063,30.809195 39.121235,37.603245 37.363228,44.688053 
z"/>
<path fill="#293131" opacity="1.000000" stroke="none" 
	d="
M95.473236,18.055307 
	C96.364998,21.151947 97.041313,24.176859 97.691483,27.611792 
	C95.096497,23.685450 92.527672,19.349089 89.931412,14.664998 
	C90.705246,14.558691 91.506500,14.800114 92.705414,15.378316 
	C93.715073,16.202852 94.327072,16.690611 94.939079,17.178368 
	C94.875298,17.514065 94.981537,17.782469 95.473236,18.055307 
z"/>
<path fill="#755C53" opacity="1.000000" stroke="none" 
	d="
M76.997246,32.968178 
	C76.997246,32.968178 76.993065,32.501518 77.244255,32.055664 
	C78.007996,30.416737 78.520554,29.223665 79.033104,28.030594 
	C80.600281,28.106297 82.167458,28.181999 83.886055,28.528215 
	C82.783188,30.003050 81.528900,31.207371 79.724365,32.644287 
	C78.448486,32.907314 77.722862,32.937748 76.997246,32.968178 
z"/>
<path fill="#433C39" opacity="1.000000" stroke="none" 
	d="
M78.668411,28.018145 
	C78.520554,29.223665 78.007996,30.416737 77.244896,31.822327 
	C75.812103,31.878429 74.629852,31.722010 73.222717,31.282515 
	C74.766449,30.001526 76.535080,29.003611 78.668411,28.018145 
z"/>
<path fill="#303635" opacity="1.000000" stroke="none" 
	d="
M42.370789,23.956173 
	C41.878639,24.007210 41.692383,23.999275 41.226517,23.987278 
	C41.018387,23.414307 41.089867,22.845398 41.390251,22.096413 
	C41.971661,22.576622 42.324173,23.236912 42.370789,23.956173 
z"/>
<path fill="#293131" opacity="1.000000" stroke="none" 
	d="
M95.954971,38.945908 
	C95.423096,38.312767 95.201202,37.506145 94.955200,36.372307 
	C95.375710,36.954205 95.820335,37.863316 95.954971,38.945908 
z"/>
<path fill="#373C3C" opacity="1.000000" stroke="none" 
	d="
M41.749866,46.152241 
	C42.120628,46.576042 42.267597,47.141888 42.193974,47.848816 
	C41.824276,47.424694 41.675175,46.859486 41.749866,46.152241 
z"/>
<path fill="#293131" opacity="1.000000" stroke="none" 
	d="
M94.933075,35.748234 
	C94.365532,35.574329 93.777023,35.081680 93.161911,34.272102 
	C93.727577,34.446613 94.319855,34.938049 94.933075,35.748234 
z"/>
<path fill="#293131" opacity="1.000000" stroke="none" 
	d="
M85.601059,22.045441 
	C85.207947,22.285233 84.816803,22.283401 84.427864,22.253075 
	C84.416702,22.252207 84.429115,21.948908 84.430534,21.786623 
	C84.821472,21.791008 85.212402,21.795391 85.601059,22.045441 
z"/>
<path fill="#293131" opacity="1.000000" stroke="none" 
	d="
M98.016449,31.245907 
	C98.464096,31.506100 98.903137,32.074047 99.173874,32.821869 
	C98.672997,32.519047 98.340431,32.036354 98.016449,31.245907 
z"/>
<path fill="#373C3C" opacity="1.000000" stroke="none" 
	d="
M40.600571,54.077950 
	C41.064117,54.468201 41.081940,54.913464 40.731110,55.534241 
	C39.960690,55.415985 39.558926,55.122215 39.157166,54.828449 
	C39.157166,54.828449 39.121109,54.565258 39.202972,54.460770 
	C39.574841,54.281837 39.864841,54.207397 40.600571,54.077950 
z"/>
<path fill="#F4F5F4" opacity="1.000000" stroke="none" 
	d="
M117.998779,27.000153 
	C115.776253,22.997639 115.742661,17.204531 109.220413,16.268627 
	C109.763535,15.336434 110.527351,14.674363 111.644348,14.007495 
	C113.081306,14.667885 114.165100,15.333071 115.624603,15.998804 
	C117.332497,19.400263 118.664680,22.801176 119.664322,26.600681 
	C118.887444,26.999565 118.443108,26.999859 117.998779,27.000153 
z"/>
<path fill="#F7F7F7" opacity="1.000000" stroke="none" 
	d="
M117.998947,27.468409 
	C118.443108,26.999859 118.887444,26.999565 119.664970,26.998606 
	C119.998505,33.020443 119.998840,39.042950 119.665436,45.533112 
	C118.887482,46.000553 118.443283,46.000332 117.999084,46.000107 
	C117.999092,39.978958 117.999100,33.957813 117.998947,27.468409 
z"/>
<path fill="#F4F5F4" opacity="1.000000" stroke="none" 
	d="
M117.706612,46.290047 
	C118.443283,46.000332 118.887482,46.000553 119.664780,46.001526 
	C119.670387,49.725357 119.342903,53.448433 119.001022,57.589989 
	C114.949066,54.682388 117.560608,50.441444 117.706612,46.290047 
z"/>
<path fill="#F7F7F7" opacity="1.000000" stroke="none" 
	d="
M95.020432,16.780596 
	C94.327072,16.690611 93.715073,16.202852 93.030296,15.422993 
	C95.446556,10.858987 99.206154,13.619989 102.715637,13.960196 
	C103.000984,14.668041 103.001411,14.835154 103.001831,15.002265 
	C100.368477,15.462451 97.735130,15.922637 95.020432,16.780596 
z"/>
<path fill="#F4F5F4" opacity="1.000000" stroke="none" 
	d="
M106.997253,15.664389 
	C106.446953,15.828768 105.891769,15.659972 105.168457,15.246826 
	C105.305138,14.483267 105.609962,13.964060 105.914780,13.444855 
	C106.273972,14.073641 106.633163,14.702427 106.997253,15.664389 
z"/>
<path fill="#F4F5F4" opacity="1.000000" stroke="none" 
	d="
M103.251114,15.002188 
	C103.001411,14.835154 103.000984,14.668041 103.000275,14.250255 
	C103.322090,14.102383 103.582886,14.290263 103.890671,14.782271 
	C103.998970,15.001321 103.500397,15.002111 103.251114,15.002188 
z"/>
<path fill="#A6877B" opacity="1.000000" stroke="none" 
	d="
M96.996819,58.015453 
	C97.777145,57.516937 98.557472,57.018425 99.538139,56.278923 
	C100.476227,58.411823 101.213966,60.785709 102.008774,63.581467 
	C102.028313,67.026947 101.990791,70.050568 101.693237,73.677765 
	C101.925140,75.252579 102.417068,76.223816 102.909004,77.195053 
	C101.836899,78.757904 100.764801,80.320755 99.181503,81.703697 
	C98.102676,81.350174 97.535042,81.176567 96.781242,80.748169 
	C96.722176,78.658432 96.849281,76.823486 96.983643,74.590576 
	C96.986046,73.131714 96.981186,72.070816 96.988258,70.599182 
	C95.618805,67.142532 98.053558,62.439606 92.996651,60.603798 
	C92.598129,55.664883 88.403763,57.360184 86.112823,55.633492 
	C88.781845,55.235580 91.401627,55.212112 94.021408,55.188641 
	C94.189186,55.697933 94.356972,56.207222 94.792061,57.153458 
	C95.705185,57.732086 96.350998,57.873772 96.996819,58.015453 
z"/>
<path fill="#968179" opacity="1.000000" stroke="none" 
	d="
M96.967415,81.002953 
	C97.535042,81.176567 98.102676,81.350174 98.844292,81.772865 
	C97.636795,86.006058 96.255302,89.990173 94.484146,94.030533 
	C94.094467,94.086784 93.976692,93.976852 93.981247,93.628090 
	C93.968681,91.475327 93.951546,89.671333 93.945709,87.647690 
	C93.956993,87.428047 94.006554,86.988380 94.008331,86.787994 
	C94.010101,86.587616 94.017258,86.186897 94.250458,86.001450 
	C94.971359,85.204597 95.459061,84.593193 96.182373,83.872375 
	C96.584747,83.468285 96.751526,83.173607 96.924240,82.566208 
	C96.942581,81.836639 96.955002,81.419800 96.967415,81.002953 
z"/>
<path fill="#968179" opacity="1.000000" stroke="none" 
	d="
M93.625450,95.883659 
	C92.880058,96.041725 92.364670,96.064888 91.481094,95.783813 
	C92.067505,94.978676 93.022095,94.477760 93.976692,93.976852 
	C93.976692,93.976852 94.094467,94.086784 94.154724,94.140717 
	C94.095139,94.712685 93.975288,95.230721 93.625450,95.883659 
z"/>
<path fill="#E8E9E8" opacity="1.000000" stroke="none" 
	d="
M102.938141,76.833115 
	C102.417068,76.223816 101.925140,75.252579 101.694107,74.130692 
	C102.292427,74.810417 102.629852,75.640793 102.938141,76.833115 
z"/>
<path fill="#957669" opacity="1.000000" stroke="none" 
	d="
M76.327065,113.054153 
	C75.931580,113.110939 75.914635,112.676254 75.956230,112.155624 
	C76.001671,111.431671 76.005516,111.228348 76.371849,110.985321 
	C78.885590,109.330872 81.036827,107.716110 83.188072,106.101357 
	C84.246315,105.759773 85.304565,105.418198 86.699867,105.061279 
	C86.649467,111.653641 81.302734,111.828331 76.327065,113.054153 
z"/>
<path fill="#313231" opacity="1.000000" stroke="none" 
	d="
M83.016846,105.854691 
	C81.036827,107.716110 78.885590,109.330872 76.078613,110.688278 
	C70.572296,110.328117 65.721718,110.225311 60.525681,110.048637 
	C58.822865,109.595337 57.465500,109.215897 56.108131,108.836456 
	C55.993153,108.521233 55.797932,108.267822 55.341709,107.639030 
	C55.788376,106.324875 56.415806,105.447922 57.430107,104.641365 
	C59.109783,104.906868 60.402588,105.101967 61.868950,105.579788 
	C63.371044,106.461006 64.699570,107.059509 66.243881,108.004517 
	C68.416649,108.426315 70.373650,108.501633 72.661430,108.565643 
	C75.961037,107.331886 78.929863,106.109428 81.898682,104.886963 
	C82.214325,105.127312 82.529968,105.367668 83.016846,105.854691 
z"/>
<path fill="#9F8074" opacity="1.000000" stroke="none" 
	d="
M93.981247,93.628090 
	C93.022095,94.477760 92.067505,94.978676 91.099579,95.847473 
	C89.023079,97.830444 86.959908,99.445518 84.447769,101.029716 
	C83.998802,100.998833 83.836662,100.843155 83.887589,100.493095 
	C87.270485,96.051132 90.602455,91.959236 93.934418,87.867340 
	C93.951546,89.671333 93.968681,91.475327 93.981247,93.628090 
z"/>
<path fill="#9F8074" opacity="1.000000" stroke="none" 
	d="
M81.981064,104.576508 
	C78.929863,106.109428 75.961037,107.331886 72.570038,108.308479 
	C72.068825,107.514801 71.989777,106.966995 71.941406,106.070686 
	C71.985725,105.491692 71.999352,105.261208 72.331421,104.984589 
	C73.423935,104.581337 74.198013,104.224213 75.309586,103.906815 
	C76.434700,103.640038 77.222328,103.333527 78.308136,103.009384 
	C79.086380,102.683563 79.566437,102.375374 80.381630,102.031860 
	C81.756729,101.612076 82.796700,101.227615 83.836662,100.843155 
	C83.836662,100.843155 83.998802,100.998833 84.081390,101.077515 
	C83.463814,102.192810 82.763634,103.229424 81.981064,104.576508 
z"/>
<path fill="#8D7369" opacity="1.000000" stroke="none" 
	d="
M39.079247,55.169312 
	C39.558926,55.122215 39.960690,55.415985 40.701477,55.867683 
	C41.362881,56.817043 41.685265,57.608475 42.014793,59.133034 
	C42.021790,60.919273 42.021641,61.972382 41.864113,63.405052 
	C40.223778,71.580910 41.132042,79.032150 44.943977,86.408241 
	C45.587498,87.529060 46.209232,88.309174 46.864861,89.097687 
	C46.898746,89.106102 46.931217,89.044281 46.924500,89.377472 
	C46.925537,90.155708 46.933296,90.600746 46.950619,91.443138 
	C47.259140,93.948959 47.558102,96.057426 47.857059,98.165901 
	C47.503357,98.179909 47.149654,98.193916 46.533997,98.160210 
	C41.841419,90.423729 37.927395,82.566246 38.008152,73.365120 
	C38.016788,72.381126 38.063442,71.285980 37.678432,70.428246 
	C35.322300,65.179184 35.751587,60.233894 39.079247,55.169312 
z"/>
<path fill="#62514A" opacity="1.000000" stroke="none" 
	d="
M57.043232,104.570961 
	C56.415806,105.447922 55.788376,106.324875 55.124290,107.530693 
	C53.651024,107.216949 52.214420,106.574356 50.432629,105.884048 
	C49.592144,105.308990 49.096848,104.781639 48.337082,104.179390 
	C48.160488,102.834602 48.248363,101.564720 48.958122,100.277122 
	C51.454109,100.765388 53.328213,101.271370 55.455368,101.845840 
	C55.883633,101.920891 56.058849,101.927452 56.215248,102.218018 
	C56.478699,103.191681 56.760963,103.881317 57.043232,104.570961 
z"/>
<path fill="#AF8E82" opacity="1.000000" stroke="none" 
	d="
M48.065701,98.272064 
	C47.558102,96.057426 47.259140,93.948959 47.221684,91.533020 
	C47.988377,91.486031 48.493565,91.746513 49.253212,92.187225 
	C50.322739,92.920036 51.137806,93.472626 51.999660,94.363098 
	C53.029457,95.469620 54.012466,96.238251 54.997738,97.003433 
	C55.000000,97.000000 54.992950,97.004219 54.990074,97.351608 
	C54.958908,98.162064 54.930618,98.625130 54.477245,99.069633 
	C52.340706,99.050720 50.629253,99.050369 48.917797,99.050018 
	C48.747276,98.783981 48.532791,98.560051 48.065701,98.272064 
z"/>
<path fill="#8D7369" opacity="1.000000" stroke="none" 
	d="
M48.902359,99.283798 
	C50.629253,99.050369 52.340706,99.050720 54.506935,99.406998 
	C55.041908,100.434395 55.122112,101.105873 55.202316,101.777344 
	C53.328213,101.271370 51.454109,100.765388 49.231030,100.122772 
	C48.882053,99.986137 48.886925,99.517586 48.902359,99.283798 
z"/>
<path fill="#584A44" opacity="1.000000" stroke="none" 
	d="
M60.871132,110.122505 
	C65.721718,110.225311 70.572296,110.328117 75.716118,110.727974 
	C76.005516,111.228348 76.001671,111.431671 75.992310,111.941132 
	C75.587753,112.261330 75.188713,112.275406 74.235100,112.264526 
	C73.426651,112.453819 73.172791,112.668068 72.918930,112.882317 
	C70.925514,112.884743 68.932106,112.887177 66.321198,112.628723 
	C65.131165,112.252708 64.558632,112.137581 63.986095,112.022453 
	C63.200737,111.721939 62.415382,111.421425 61.285679,110.862396 
	C60.941334,110.603889 60.871132,110.122505 60.871132,110.122505 
z"/>
<path fill="#957669" opacity="1.000000" stroke="none" 
	d="
M63.989086,112.281204 
	C64.558632,112.137581 65.131165,112.252708 65.895172,112.595245 
	C65.624977,112.895538 65.163315,112.968414 64.349609,113.049377 
	C63.995739,112.884964 63.993908,112.712463 63.989086,112.281204 
z"/>
<path fill="#957669" opacity="1.000000" stroke="none" 
	d="
M73.165344,112.890228 
	C73.172791,112.668068 73.426651,112.453819 73.936142,112.284767 
	C74.004921,112.619751 73.744919,112.809143 73.165344,112.890228 
z"/>
<path fill="#957669" opacity="1.000000" stroke="none" 
	d="
M60.525681,110.048637 
	C60.871132,110.122505 60.941334,110.603889 60.958431,110.846924 
	C59.363422,110.572014 57.751320,110.054054 56.123672,109.186279 
	C57.465500,109.215897 58.822865,109.595337 60.525681,110.048637 
z"/>
<path fill="#C0998A" opacity="1.000000" stroke="none" 
	d="
M76.934280,33.165756 
	C77.722862,32.937748 78.448486,32.907314 79.534615,32.846977 
	C82.886459,33.338474 86.374992,33.060097 88.766266,34.546707 
	C93.843643,37.703209 94.629120,44.775597 90.794754,50.713890 
	C88.531593,50.689163 86.789558,50.398960 85.024002,49.710781 
	C85.059296,46.803501 84.733009,44.208668 85.266891,41.804878 
	C86.073975,38.171059 84.530334,36.241936 81.464905,35.069870 
	C79.956795,34.493244 78.343117,34.192715 76.777214,33.767246 
	C76.777214,33.767246 76.871307,33.363327 76.934280,33.165756 
z"/>
<path fill="#6A5750" opacity="1.000000" stroke="none" 
	d="
M85.047516,50.108757 
	C86.789558,50.398960 88.531593,50.689163 90.645584,51.078815 
	C91.941620,52.309032 92.865715,53.439800 93.905609,54.879601 
	C91.401627,55.212112 88.781845,55.235580 85.678574,55.631516 
	C83.470062,55.998402 81.745026,55.992821 79.816994,55.718452 
	C78.744911,55.317608 77.875839,55.185555 76.682503,55.035439 
	C75.926117,54.990189 75.493980,54.962997 75.165497,54.646790 
	C75.553940,53.598743 75.838753,52.839714 76.444168,51.980030 
	C77.840591,51.569229 78.916405,51.259083 80.363129,51.001266 
	C82.171867,50.738651 83.609695,50.423702 85.047516,50.108757 
z"/>
<path fill="#A78376" opacity="1.000000" stroke="none" 
	d="
M96.981201,57.764328 
	C96.350998,57.873772 95.705185,57.732086 95.027618,57.299641 
	C95.404541,57.010300 95.813217,57.011723 96.527603,57.020409 
	C96.877419,57.189518 96.921501,57.351360 96.981201,57.764328 
z"/>
<path fill="#373C3C" opacity="1.000000" stroke="none" 
	d="
M97.522598,50.727356 
	C97.656441,50.910549 97.573029,51.279301 97.258530,51.822235 
	C97.120071,51.635250 97.212715,51.274082 97.522598,50.727356 
z"/>
<path fill="#D1B3A7" opacity="1.000000" stroke="none" 
	d="
M85.024002,49.710781 
	C83.609695,50.423702 82.171867,50.738651 80.355850,50.640324 
	C78.804131,47.616356 76.035629,45.360001 78.534508,41.983433 
	C79.133179,41.174480 79.387650,39.172565 78.877739,38.685760 
	C77.948578,37.798683 76.279633,37.140167 75.007278,37.267189 
	C71.903198,37.577076 68.839424,38.344948 65.778412,39.015160 
	C63.197712,39.580204 60.643734,40.267284 58.077930,40.900349 
	C57.610821,41.803612 57.143711,42.706875 56.676601,43.610138 
	C59.001297,44.473133 61.325996,45.336128 63.650696,46.199127 
	C63.274551,46.702122 62.898407,47.205116 62.522263,47.708111 
	C58.464912,47.980011 54.342815,48.177872 54.735317,53.930634 
	C54.249794,54.028973 54.055580,54.068275 53.518394,54.066090 
	C52.486488,53.976322 51.797543,53.928047 51.108601,53.879772 
	C51.056328,53.486282 51.004051,53.092789 50.904751,52.406101 
	C52.184353,47.712723 53.510975,43.312538 54.915169,38.555702 
	C55.742321,37.867348 56.461971,37.377239 57.246239,37.229023 
	C63.481625,36.050594 69.729286,34.937088 76.375198,33.785454 
	C78.343117,34.192715 79.956795,34.493244 81.464905,35.069870 
	C84.530334,36.241936 86.073975,38.171059 85.266891,41.804878 
	C84.733009,44.208668 85.059296,46.803501 85.024002,49.710781 
z"/>
<path fill="#A38073" opacity="1.000000" stroke="none" 
	d="
M53.861362,54.107582 
	C54.055580,54.068275 54.249794,54.028973 55.090080,53.810539 
	C59.595478,52.369896 62.567474,52.829922 64.235634,57.203205 
	C64.819809,58.734692 66.511520,59.843719 67.725662,61.316227 
	C67.753860,61.486790 67.711639,61.831348 67.387680,61.928673 
	C66.109375,63.580864 65.155029,65.135727 63.997143,67.022232 
	C61.944733,64.774963 60.238831,62.907101 58.238197,60.747356 
	C56.321434,60.348721 54.699394,60.241970 52.681915,60.090553 
	C49.499023,59.827126 47.686974,60.664310 47.711937,63.939583 
	C45.555523,63.653427 43.788509,63.339458 42.021492,63.025490 
	C42.021641,61.972382 42.021790,60.919273 42.026199,59.474167 
	C42.894211,58.706245 43.757957,58.330330 45.154144,57.549587 
	C48.411507,56.132370 51.136436,55.119976 53.861362,54.107582 
z"/>
<path fill="#433C39" opacity="1.000000" stroke="none" 
	d="
M53.518394,54.066090 
	C51.136436,55.119976 48.411507,56.132370 45.340290,57.325680 
	C44.445129,52.903877 47.929775,54.322346 50.675392,53.935341 
	C51.797543,53.928047 52.486488,53.976322 53.518394,54.066090 
z"/>
<path fill="#A78376" opacity="1.000000" stroke="none" 
	d="
M75.061844,54.935806 
	C75.493980,54.962997 75.926117,54.990189 76.895401,55.287601 
	C78.295029,55.700962 79.157516,55.844101 80.019997,55.987240 
	C81.745026,55.992821 83.470062,55.998402 85.629333,56.005959 
	C88.403763,57.360184 92.598129,55.664883 92.810852,60.875114 
	C91.757080,62.691437 90.881264,63.854008 89.637726,65.020180 
	C88.182655,65.370651 87.095306,65.717522 85.675888,66.041763 
	C84.900490,66.023308 84.457169,66.027496 83.584976,65.999359 
	C81.438187,65.979988 79.720268,65.992950 77.713394,65.876427 
	C76.212418,66.177574 75.000397,66.608200 73.302681,67.211395 
	C72.868912,65.864738 72.399323,64.406876 71.935715,62.618568 
	C71.893494,61.850212 71.845299,61.412300 71.837692,60.697010 
	C71.885674,60.232883 71.893074,60.046139 72.146744,59.895424 
	C72.393005,59.931450 72.886513,59.967491 73.185349,60.089870 
	C74.672958,61.002579 75.861740,61.792908 77.156776,62.653877 
	C77.699532,60.868809 78.192986,59.245895 78.766533,57.359539 
	C76.863380,57.610527 75.424873,57.800236 74.111526,57.688774 
	C74.511734,56.570339 74.786789,55.753071 75.061844,54.935806 
z"/>
<path fill="#C39E90" opacity="1.000000" stroke="none" 
	d="
M90.005455,65.016579 
	C90.881264,63.854008 91.757080,62.691437 92.818695,61.257553 
	C98.053558,62.439606 95.618805,67.142532 96.647308,70.544281 
	C94.198097,68.938927 92.101776,66.977753 90.005455,65.016579 
z"/>
<path fill="#CAA89A" opacity="1.000000" stroke="none" 
	d="
M89.637726,65.020180 
	C92.101776,66.977753 94.198097,68.938927 96.635376,70.955002 
	C96.981186,72.070816 96.986046,73.131714 96.615074,74.592690 
	C95.500801,74.999886 94.762360,75.007004 94.013031,74.612305 
	C93.862923,70.555603 92.887039,67.756294 88.355995,67.884361 
	C87.591080,67.905983 86.791519,66.702080 86.007965,66.064400 
	C87.095306,65.717522 88.182655,65.370651 89.637726,65.020180 
z"/>
<path fill="#C39E90" opacity="1.000000" stroke="none" 
	d="
M94.023911,75.014130 
	C94.762360,75.007004 95.500801,74.999886 96.607819,74.990646 
	C96.849281,76.823486 96.722176,78.658432 96.781242,80.748169 
	C96.955002,81.419800 96.942581,81.836639 96.716293,82.706329 
	C96.317207,83.433380 96.131989,83.707581 95.946770,83.981781 
	C95.459061,84.593193 94.971359,85.204597 94.027321,85.967842 
	C93.570992,86.119675 93.120987,86.136414 93.087151,85.778275 
	C93.030914,84.941048 93.008507,84.461960 93.112686,83.690170 
	C93.494209,82.598206 93.749130,81.798943 94.264259,80.790131 
	C94.359474,79.388252 94.194496,78.195915 94.025085,76.671928 
	C94.021736,75.898224 94.022827,75.456177 94.023911,75.014130 
z"/>
<path fill="#CAA89A" opacity="1.000000" stroke="none" 
	d="
M92.986099,83.982864 
	C93.008507,84.461960 93.030914,84.941048 93.183060,85.965439 
	C93.489655,86.748848 93.720909,86.908066 94.006554,86.988380 
	C94.006554,86.988380 93.956993,87.428047 93.945709,87.647690 
	C90.602455,91.959236 87.270485,96.051132 83.887589,100.493095 
	C82.796700,101.227615 81.756729,101.612076 80.232483,101.705704 
	C79.501747,100.276482 79.255302,99.138084 79.372375,97.992554 
	C83.157066,94.657143 86.578232,91.328880 90.136826,87.685204 
	C91.178215,86.240822 92.082161,85.111847 92.986099,83.982864 
z"/>
<path fill="#A78376" opacity="1.000000" stroke="none" 
	d="
M96.182373,83.872375 
	C96.131989,83.707581 96.317207,83.433380 96.710373,83.019051 
	C96.751526,83.173607 96.584747,83.468285 96.182373,83.872375 
z"/>
<path fill="#9F8074" opacity="1.000000" stroke="none" 
	d="
M94.008331,86.787994 
	C93.720909,86.908066 93.489655,86.748848 93.216896,86.323570 
	C93.120987,86.136414 93.570992,86.119675 93.794128,86.153290 
	C94.017258,86.186897 94.010101,86.587616 94.008331,86.787994 
z"/>
<path fill="#CAA89A" opacity="1.000000" stroke="none" 
	d="
M51.952873,94.025208 
	C51.137806,93.472626 50.322739,92.920036 49.248638,91.829300 
	C48.303478,90.542191 47.617348,89.793236 46.931217,89.044281 
	C46.931217,89.044281 46.898746,89.106102 46.896729,88.769974 
	C46.596275,87.622566 46.297832,86.811287 45.999695,86.000000 
	C46.000000,86.000000 45.999973,85.999390 46.152523,85.911583 
	C46.365700,85.725510 46.499851,85.571609 46.474640,85.538300 
	C46.343071,85.364418 46.171001,85.221176 46.009018,84.721924 
	C46.004845,83.916077 46.004669,83.455582 46.353905,83.053825 
	C49.781334,85.065407 52.859352,87.018257 55.996426,89.309479 
	C58.703957,92.100044 61.352436,94.552246 63.856560,97.302589 
	C59.704475,100.821022 65.984856,102.110802 64.633514,104.809174 
	C63.373547,105.008812 62.534470,105.152939 61.695393,105.297073 
	C60.402588,105.101967 59.109783,104.906868 57.430107,104.641365 
	C56.760963,103.881317 56.478699,103.191681 56.542057,102.160843 
	C59.008526,99.131508 58.024975,97.664856 54.992950,97.004219 
	C54.992950,97.004219 55.000000,97.000000 54.991806,96.629562 
	C53.973366,95.514481 52.963120,94.769844 51.952873,94.025208 
z"/>
<path fill="#62514A" opacity="1.000000" stroke="none" 
	d="
M71.910728,106.419189 
	C71.989777,106.966995 72.068825,107.514801 72.239258,108.319778 
	C70.373650,108.501633 68.416649,108.426315 66.400360,107.794975 
	C66.629120,107.033447 66.917168,106.827950 67.453430,106.664238 
	C68.146523,106.490234 68.591393,106.274437 69.394974,106.115952 
	C70.472694,106.255234 71.191711,106.337212 71.910728,106.419189 
z"/>
<path fill="#9F8074" opacity="1.000000" stroke="none" 
	d="
M67.205215,106.622452 
	C66.917168,106.827950 66.629120,107.033447 66.184586,107.448486 
	C64.699570,107.059509 63.371044,106.461006 61.868950,105.579788 
	C62.534470,105.152939 63.373547,105.008812 64.989929,104.871094 
	C66.249413,104.894417 66.731590,104.911339 67.170517,105.211884 
	C67.153252,105.871147 67.179230,106.246796 67.205215,106.622452 
z"/>
<path fill="#D1B3A7" opacity="1.000000" stroke="none" 
	d="
M67.213776,104.928268 
	C66.731590,104.911339 66.249413,104.894417 65.410812,104.815575 
	C65.984856,102.110802 59.704475,100.821022 64.227570,97.307281 
	C65.483643,97.056389 66.224342,97.098969 67.052116,97.483719 
	C69.070564,99.675255 70.762215,99.861824 72.391693,97.086990 
	C73.471062,97.016975 74.190468,96.980499 75.237640,97.089691 
	C76.713219,97.490135 77.861031,97.744919 79.008850,97.999695 
	C79.255302,99.138084 79.501747,100.276482 79.897346,101.741028 
	C79.566437,102.375374 79.086380,102.683563 78.115700,102.752167 
	C76.740746,102.964081 75.856422,103.415588 74.972092,103.867096 
	C74.198013,104.224213 73.423935,104.581337 71.941078,104.961823 
	C70.451057,104.975479 69.669807,104.965767 68.608582,104.957672 
	C67.956993,104.948959 67.585388,104.938614 67.213776,104.928268 
z"/>
<path fill="#CAA89A" opacity="1.000000" stroke="none" 
	d="
M75.309586,103.906822 
	C75.856422,103.415588 76.740746,102.964081 77.817505,102.769791 
	C77.222328,103.333527 76.434700,103.640038 75.309586,103.906822 
z"/>
<path fill="#AF8E82" opacity="1.000000" stroke="none" 
	d="
M68.888565,104.956055 
	C69.669807,104.965767 70.451057,104.975479 71.622643,105.007950 
	C71.999352,105.261208 71.985725,105.491692 71.941406,106.070679 
	C71.191711,106.337212 70.472694,106.255234 69.356659,105.840210 
	C68.935951,105.323456 68.912254,105.139755 68.888565,104.956055 
z"/>
<path fill="#C39E90" opacity="1.000000" stroke="none" 
	d="
M46.004498,82.995087 
	C46.004669,83.455582 46.004845,83.916077 46.010036,84.954582 
	C46.015057,85.532593 45.999973,85.999390 45.999973,85.999390 
	C45.999973,85.999390 46.000000,86.000000 45.729919,86.009216 
	C45.280621,86.034805 45.101406,86.051163 44.922192,86.067528 
	C41.132042,79.032150 40.223778,71.580910 41.864113,63.405052 
	C43.788509,63.339458 45.555523,63.653427 48.022667,63.987129 
	C49.139156,64.067215 49.555527,64.127563 49.962521,64.491837 
	C49.968079,65.205238 49.983009,65.614700 49.772850,66.287354 
	C47.813358,66.891159 44.558449,67.324242 44.572693,67.558525 
	C44.785641,71.060287 45.430168,74.535805 45.977882,78.432373 
	C45.990025,80.229858 45.997261,81.612473 46.004498,82.995087 
z"/>
<path fill="#C6A598" opacity="1.000000" stroke="none" 
	d="
M46.924500,89.377472 
	C47.617348,89.793236 48.303478,90.542191 48.994179,91.649078 
	C48.493565,91.746513 47.988377,91.486031 47.212120,91.135666 
	C46.933296,90.600746 46.925537,90.155708 46.924500,89.377472 
z"/>
<path fill="#AF8E82" opacity="1.000000" stroke="none" 
	d="
M44.943977,86.408241 
	C45.101406,86.051163 45.280621,86.034805 45.729614,86.009216 
	C46.297832,86.811287 46.596275,87.622566 46.862843,88.761566 
	C46.209232,88.309174 45.587498,87.529060 44.943977,86.408241 
z"/>
<path fill="#C6A598" opacity="1.000000" stroke="none" 
	d="
M54.990074,97.351608 
	C58.024975,97.664856 59.008526,99.131508 56.560875,101.876831 
	C56.058849,101.927452 55.883633,101.920891 55.455368,101.845840 
	C55.122112,101.105873 55.041908,100.434395 54.932014,99.425568 
	C54.930618,98.625130 54.958908,98.162064 54.990074,97.351608 
z"/>
<path fill="#C6A598" opacity="1.000000" stroke="none" 
	d="
M51.999660,94.363098 
	C52.963120,94.769844 53.973366,95.514481 54.989544,96.632996 
	C54.012466,96.238251 53.029457,95.469620 51.999660,94.363098 
z"/>
<path fill="#D8BDB2" opacity="1.000000" stroke="none" 
	d="
M71.900475,59.859394 
	C71.893074,60.046139 71.885674,60.232883 71.437157,60.702934 
	C69.896515,61.039379 68.796989,61.092522 67.697472,61.145660 
	C66.511520,59.843719 64.819809,58.734692 64.235634,57.203205 
	C62.567474,52.829922 59.595478,52.369896 55.381386,53.751503 
	C54.342815,48.177872 58.464912,47.980011 62.522263,47.708111 
	C62.898407,47.205116 63.274551,46.702122 63.650696,46.199127 
	C61.325996,45.336128 59.001297,44.473133 56.676601,43.610138 
	C57.143711,42.706875 57.610821,41.803612 58.077930,40.900349 
	C60.643734,40.267284 63.197712,39.580204 65.778412,39.015160 
	C68.839424,38.344948 71.903198,37.577076 75.007278,37.267189 
	C76.279633,37.140167 77.948578,37.798683 78.877739,38.685760 
	C79.387650,39.172565 79.133179,41.174480 78.534508,41.983433 
	C76.035629,45.360001 78.804131,47.616356 79.984932,50.587990 
	C78.916405,51.259083 77.840591,51.569229 76.070869,51.955662 
	C74.235886,53.019196 73.094810,54.006443 71.620453,55.056168 
	C71.491608,56.698891 71.696045,58.279144 71.900475,59.859394 
z"/>
<path fill="#C39E90" opacity="1.000000" stroke="none" 
	d="
M71.953735,54.993690 
	C73.094810,54.006443 74.235886,53.019196 75.750259,52.056316 
	C75.838753,52.839714 75.553940,53.598743 75.165489,54.646790 
	C74.786789,55.753071 74.511734,56.570339 73.870911,57.702980 
	C73.505135,58.018353 73.022820,58.022823 72.889069,57.727024 
	C72.488121,56.618713 72.220932,55.806202 71.953735,54.993690 
z"/>
<path fill="#9B7668" opacity="1.000000" stroke="none" 
	d="
M79.816994,55.718452 
	C79.157516,55.844101 78.295029,55.700962 77.219650,55.305664 
	C77.875839,55.185555 78.744911,55.317608 79.816994,55.718452 
z"/>
<path fill="#C39E90" opacity="1.000000" stroke="none" 
	d="
M71.929733,62.949013 
	C72.399323,64.406876 72.868912,65.864738 73.302681,67.211395 
	C75.000397,66.608200 76.212418,66.177574 77.713043,66.248734 
	C77.997559,67.494919 77.993477,68.239311 77.838394,69.340317 
	C77.832825,72.010681 78.141190,74.329811 78.065147,76.636269 
	C78.016251,78.119606 77.402122,79.584297 76.655739,81.105072 
	C71.516533,81.767830 66.762932,82.382858 61.940193,82.641808 
	C60.587673,81.854385 59.304279,81.423058 58.009205,80.577560 
	C58.006325,78.783226 58.015125,77.403069 58.300125,75.811020 
	C60.856232,70.408104 59.827969,69.073044 51.997292,66.805634 
	C51.989235,66.372879 51.987419,66.199753 52.327248,66.002960 
	C53.465576,65.399017 54.262253,64.818741 55.383022,64.205215 
	C56.140656,64.144463 56.574192,64.116959 57.014927,64.325005 
	C57.177471,64.805977 57.332817,65.051407 57.488167,65.296829 
	C57.599434,64.604599 57.710693,63.912361 57.830963,62.922791 
	C58.070953,62.096718 58.301945,61.567982 58.532928,61.039242 
	C60.238831,62.907101 61.944733,64.774963 63.997143,67.022232 
	C65.155029,65.135727 66.109375,63.580864 67.484924,62.342575 
	C66.792480,66.743393 65.496178,70.790771 64.660744,74.931152 
	C64.353706,76.452797 64.714226,78.484680 65.572426,79.731834 
	C66.130257,80.542480 68.868629,81.017502 69.350136,80.485168 
	C70.530434,79.180290 71.583023,77.199677 71.569237,75.500008 
	C71.545784,72.607643 70.423492,69.736191 70.254669,66.827408 
	C70.181763,65.571251 71.334023,64.243980 71.929733,62.949013 
z"/>
<path fill="#D6B7AB" opacity="1.000000" stroke="none" 
	d="
M71.935715,62.618568 
	C71.334023,64.243980 70.181763,65.571251 70.254669,66.827408 
	C70.423492,69.736191 71.545784,72.607643 71.569237,75.500008 
	C71.583023,77.199677 70.530434,79.180290 69.350136,80.485168 
	C68.868629,81.017502 66.130257,80.542480 65.572426,79.731834 
	C64.714226,78.484680 64.353706,76.452797 64.660744,74.931152 
	C65.496178,70.790771 66.792480,66.743393 67.808884,62.245251 
	C67.711639,61.831348 67.753860,61.486790 67.725662,61.316223 
	C68.796989,61.092522 69.896515,61.039379 71.396576,60.980316 
	C71.845299,61.412300 71.893494,61.850212 71.935715,62.618568 
z"/>
<path fill="#433C39" opacity="1.000000" stroke="none" 
	d="
M57.007729,64.089455 
	C56.574192,64.116959 56.140656,64.144463 55.210342,64.078011 
	C54.713570,63.984051 54.286739,63.963135 54.181675,63.662079 
	C53.697388,62.603367 53.318161,61.845715 52.975868,60.850189 
	C53.012798,60.612316 53.077358,60.135220 53.077358,60.135220 
	C54.699394,60.241970 56.321434,60.348721 58.238201,60.747356 
	C58.301945,61.567982 58.070953,62.096718 57.567276,63.084557 
	C57.198967,63.725590 57.103348,63.907520 57.007729,64.089455 
z"/>
<path fill="#6A5750" opacity="1.000000" stroke="none" 
	d="
M52.681915,60.090553 
	C53.077358,60.135220 53.012798,60.612316 52.697472,60.936325 
	C51.879848,61.833576 51.377556,62.406818 50.651665,63.117462 
	C50.276012,63.565876 50.123955,63.876892 49.971893,64.187904 
	C49.555527,64.127563 49.139156,64.067215 48.412060,63.959316 
	C47.686974,60.664310 49.499023,59.827126 52.681915,60.090553 
z"/>
<path fill="#D6B7AB" opacity="1.000000" stroke="none" 
	d="
M77.041336,81.057350 
	C77.402122,79.584297 78.016251,78.119606 78.065147,76.636269 
	C78.141190,74.329811 77.832825,72.010681 78.218163,69.339539 
	C80.503899,67.998665 82.258873,67.015175 84.013840,66.031685 
	C84.457169,66.027496 84.900490,66.023308 85.675888,66.041763 
	C86.791519,66.702080 87.591080,67.905983 88.355995,67.884361 
	C92.887039,67.756294 93.862923,70.555603 94.013031,74.612305 
	C94.022827,75.456177 94.021736,75.898224 93.758133,76.877487 
	C93.665100,78.609695 93.834572,79.804688 94.004059,80.999680 
	C93.749130,81.798943 93.494209,82.598206 93.112694,83.690170 
	C92.082161,85.111847 91.178215,86.240822 89.725494,87.684425 
	C86.792595,88.329086 84.408455,88.659119 82.007965,88.753098 
	C81.991600,88.517036 81.974968,88.044083 81.935455,87.693146 
	C80.277748,85.247253 78.659538,83.152298 77.041336,81.057350 
M80.758537,75.918846 
	C81.441063,81.953575 84.243286,83.878815 89.652794,82.029556 
	C90.672127,72.879120 90.671860,72.878105 82.248535,75.105049 
	C81.931915,75.188766 81.630661,75.330559 80.758537,75.918846 
z"/>
<path fill="#9B7668" opacity="1.000000" stroke="none" 
	d="
M73.022820,58.022823 
	C73.022820,58.022823 73.505135,58.018353 73.745750,58.004150 
	C75.424873,57.800236 76.863380,57.610527 78.766533,57.359539 
	C78.192986,59.245895 77.699532,60.868809 77.156776,62.653877 
	C75.861740,61.792908 74.672958,61.002579 73.203171,59.765610 
	C72.955719,58.886925 72.989265,58.454872 73.022820,58.022823 
z"/>
<path fill="#CAA89A" opacity="1.000000" stroke="none" 
	d="
M83.584976,65.999359 
	C82.258873,67.015175 80.503899,67.998665 78.369164,68.982933 
	C77.993477,68.239311 77.997559,67.494919 78.001999,66.378212 
	C79.720268,65.992950 81.438187,65.979988 83.584976,65.999359 
z"/>
<path fill="#D6B7AB" opacity="1.000000" stroke="none" 
	d="
M72.889069,57.727024 
	C72.989265,58.454872 72.955719,58.886925 72.904343,59.643234 
	C72.886513,59.967491 72.393005,59.931450 72.146744,59.895424 
	C71.696045,58.279144 71.491608,56.698891 71.620461,55.056168 
	C72.220932,55.806202 72.488121,56.618713 72.889069,57.727024 
z"/>
<path fill="#CAA89A" opacity="1.000000" stroke="none" 
	d="
M94.264252,80.790131 
	C93.834572,79.804688 93.665100,78.609695 93.762573,77.209145 
	C94.194496,78.195915 94.359474,79.388252 94.264252,80.790131 
z"/>
<path fill="#CBAB9F" opacity="1.000000" stroke="none" 
	d="
M82.024323,88.989151 
	C84.408455,88.659119 86.792595,88.329086 89.588058,87.999832 
	C86.578232,91.328880 83.157066,94.657143 79.372375,97.992554 
	C77.861031,97.744919 76.713219,97.490135 75.307358,96.778198 
	C75.698509,95.878738 76.347710,95.436440 77.184402,95.235168 
	C78.248955,94.659584 79.125992,93.842964 80.303131,92.857384 
	C81.076935,91.455338 81.550629,90.222244 82.024323,88.989151 
z"/>
<path fill="#B3817D" opacity="1.000000" stroke="none" 
	d="
M82.007965,88.753098 
	C81.550629,90.222244 81.076935,91.455338 79.984108,92.877319 
	C78.575630,93.708855 77.786270,94.351501 76.996902,94.994141 
	C76.347710,95.436440 75.698509,95.878738 74.979599,96.632530 
	C74.190468,96.980499 73.471062,97.016975 71.970230,97.047897 
	C69.780891,97.075401 68.372971,97.108475 66.965042,97.141541 
	C66.224342,97.098969 65.483643,97.056389 64.371933,97.009125 
	C61.352436,94.552246 58.703957,92.100044 56.224018,89.206100 
	C56.678551,88.571518 56.879337,88.312599 57.463982,87.997749 
	C65.947029,88.019958 73.960999,88.032021 81.974968,88.044083 
	C81.974968,88.044083 81.991600,88.517036 82.007965,88.753098 
z"/>
<path fill="#D4B5A9" opacity="1.000000" stroke="none" 
	d="
M56.994904,87.987602 
	C56.879337,88.312599 56.678551,88.571518 56.164963,88.867737 
	C52.859352,87.018257 49.781334,85.065407 46.353905,83.053825 
	C45.997261,81.612473 45.990025,80.229858 45.986538,77.988937 
	C45.865211,72.999756 45.201694,68.540123 51.478813,68.387756 
	C51.664310,68.383255 51.829090,67.525299 52.003529,67.065262 
	C59.827969,69.073044 60.856232,70.408104 58.043396,75.526138 
	C55.931896,75.007797 54.376575,74.435188 52.770256,74.141708 
	C48.462116,73.354576 47.269489,74.755310 48.506104,78.996277 
	C49.904552,83.792252 52.646244,84.367241 58.020885,80.991722 
	C59.304279,81.423058 60.587673,81.854385 61.629269,82.776161 
	C59.923283,84.840263 58.459091,86.413933 56.994904,87.987602 
z"/>
<path fill="#AF8E82" opacity="1.000000" stroke="none" 
	d="
M46.152523,85.911583 
	C45.999973,85.999390 46.015057,85.532593 46.014038,85.299934 
	C46.171001,85.221176 46.343071,85.364418 46.474640,85.538300 
	C46.499851,85.571609 46.365700,85.725510 46.152523,85.911583 
z"/>
<path fill="#CAA89A" opacity="1.000000" stroke="none" 
	d="
M68.608582,104.957672 
	C68.912254,105.139755 68.935951,105.323456 68.997955,105.782898 
	C68.591393,106.274437 68.146523,106.490234 67.453430,106.664238 
	C67.179230,106.246796 67.153252,105.871147 67.170517,105.211884 
	C67.585388,104.938614 67.956993,104.948959 68.608582,104.957672 
z"/>
<path fill="#CAA89A" opacity="1.000000" stroke="none" 
	d="
M67.052116,97.483719 
	C68.372971,97.108475 69.780891,97.075401 71.610275,97.081429 
	C70.762215,99.861824 69.070564,99.675255 67.052116,97.483719 
z"/>
<path fill="#CBAB9F" opacity="1.000000" stroke="none" 
	d="
M51.997292,66.805634 
	C51.829090,67.525299 51.664310,68.383255 51.478813,68.387756 
	C45.201694,68.540123 45.865211,72.999756 45.981628,77.574066 
	C45.430168,74.535805 44.785641,71.060287 44.572693,67.558525 
	C44.558449,67.324242 47.813358,66.891159 50.104206,66.278229 
	C51.102303,66.012810 51.543953,66.019722 51.985600,66.026627 
	C51.987419,66.199753 51.989235,66.372879 51.997292,66.805634 
z"/>
<path fill="#A38073" opacity="1.000000" stroke="none" 
	d="
M52.327248,66.002960 
	C51.543953,66.019722 51.102303,66.012810 50.329300,66.015030 
	C49.983009,65.614700 49.968079,65.205238 49.962524,64.491837 
	C50.123955,63.876892 50.276012,63.565876 50.983551,63.258812 
	C52.454933,63.496220 53.370834,63.729675 54.286739,63.963135 
	C54.286739,63.963135 54.713570,63.984051 54.886246,64.111259 
	C54.262253,64.818741 53.465576,65.399017 52.327248,66.002960 
z"/>
<path fill="#CBAB9F" opacity="1.000000" stroke="none" 
	d="
M57.463982,87.997749 
	C58.459091,86.413933 59.923283,84.840263 61.698395,83.132248 
	C66.762932,82.382858 71.516533,81.767830 76.655739,81.105072 
	C78.659538,83.152298 80.277748,85.247253 81.935455,87.693146 
	C73.960999,88.032021 65.947029,88.019958 57.463982,87.997749 
z"/>
<path fill="#D8BDB2" opacity="1.000000" stroke="none" 
	d="
M58.009205,80.577560 
	C52.646244,84.367241 49.904552,83.792252 48.506104,78.996277 
	C47.269489,74.755310 48.462116,73.354576 52.770256,74.141708 
	C54.376575,74.435188 55.931896,75.007797 57.767200,75.738022 
	C58.015125,77.403069 58.006325,78.783226 58.009205,80.577560 
z"/>
<path fill="#A38073" opacity="1.000000" stroke="none" 
	d="
M57.014927,64.325005 
	C57.103348,63.907520 57.198967,63.725590 57.558273,63.381889 
	C57.710693,63.912361 57.599434,64.604599 57.488167,65.296829 
	C57.332817,65.051407 57.177471,64.805977 57.014927,64.325005 
z"/>
<path fill="#C6A598" opacity="1.000000" stroke="none" 
	d="
M54.181675,63.662079 
	C53.370834,63.729675 52.454933,63.496220 51.207146,63.121414 
	C51.377556,62.406818 51.879848,61.833576 52.660538,61.174198 
	C53.318161,61.845715 53.697388,62.603367 54.181675,63.662079 
z"/>
<path fill="#DAC1B7" opacity="1.000000" stroke="none" 
	d="
M81.040390,75.682068 
	C81.630661,75.330559 81.931915,75.188766 82.248535,75.105049 
	C90.671860,72.878105 90.672127,72.879120 89.652794,82.029556 
	C84.243286,83.878815 81.441063,81.953575 81.040390,75.682068 
z"/>
<path fill="#CAA89A" opacity="1.000000" stroke="none" 
	d="
M77.184410,95.235176 
	C77.786270,94.351501 78.575630,93.708855 79.684006,93.046265 
	C79.125992,93.842964 78.248955,94.659584 77.184410,95.235176 
z"/>
</svg>