<?xml version="1.0" standalone="no"?>
<!DOCTYPE svg PUBLIC "-//W3C//DTD SVG 20010904//EN"
 "http://www.w3.org/TR/2001/REC-SVG-20010904/DTD/svg10.dtd">
<svg version="1.0" xmlns="http://www.w3.org/2000/svg"
 width="487.000000pt" height="512.000000pt" viewBox="0 0 487.000000 512.000000"
 preserveAspectRatio="xMidYMid meet">

<g transform="translate(0.000000,512.000000) scale(0.100000,-0.100000)"
fill="#000000" stroke="none">
<path d="M0 2560 l0 -2560 2435 0 2435 0 0 2560 0 2560 -2435 0 -2435 0 0
-2560z m2643 2140 c6 -24 -10 -50 -31 -50 -14 0 -18 8 -17 38 0 34 3 38 22 34
11 -2 23 -12 26 -22z m88 20 c17 0 28 -4 24 -9 -3 -5 -1 -13 5 -16 8 -5 7 -11
-1 -21 -10 -13 -6 -18 14 -15 4 0 7 -3 7 -9 0 -24 -52 -8 -86 25 -34 34 -38
62 -7 51 8 -3 28 -6 44 -6z m-181 -15 c0 -19 -51 -45 -88 -45 -37 0 -100 -31
-131 -64 -14 -14 -34 -26 -47 -26 -22 0 -34 -17 -34 -51 0 -24 -20 -25 -21 -1
-2 23 -2 24 6 45 9 21 -12 23 -34 3 -18 -16 -88 -56 -98 -56 -4 0 20 20 51 45
32 25 63 45 68 45 5 0 33 11 61 24 29 14 79 37 112 52 52 25 95 37 143 43 6 0
12 -6 12 -14z m614 -166 c14 -11 26 -27 26 -35 0 -24 -19 -16 -35 15 -8 16
-20 31 -27 34 -8 3 -8 6 -2 6 6 1 23 -8 38 -20z m-30 -21 c15 -24 1 -33 -29
-20 -16 8 -23 17 -19 27 8 20 33 16 48 -7z m-937 -30 c-3 -7 -5 -2 -5 12 0 14
2 19 5 13 2 -7 2 -19 0 -25z m43 -43 c13 -14 19 -25 14 -25 -12 0 -59 50 -47
50 5 0 20 -11 33 -25z m26 -53 c12 -10 25 -29 29 -43 7 -23 7 -23 -11 -8 -11
9 -27 19 -36 22 -10 4 -18 16 -18 27 0 24 8 25 36 2z m580 -118 c-3 -9 -6 -24
-6 -34 0 -11 -7 -17 -17 -16 -14 1 -18 -6 -17 -31 1 -18 -2 -30 -7 -27 -20 12
-7 -37 17 -66 31 -37 73 -60 109 -60 29 0 84 -54 85 -83 0 -10 10 -41 22 -69
16 -38 23 -46 30 -34 6 10 2 28 -10 53 -11 21 -17 45 -15 53 13 44 13 44 29
22 8 -12 12 -27 9 -32 -3 -6 0 -10 7 -10 22 0 130 -292 150 -405 22 -126 22
-179 2 -280 -9 -44 -20 -97 -24 -118 -20 -100 -158 -234 -308 -300 -48 -22
-95 -43 -105 -48 -10 -5 -62 -16 -117 -25 -96 -14 -102 -14 -157 6 -32 12 -75
25 -96 31 -102 26 -198 115 -252 234 -52 112 -96 309 -101 450 l-5 120 34 27
c43 35 167 57 225 40 37 -10 77 -10 87 0 3 3 0 18 -6 34 -6 16 -13 23 -16 17
-3 -9 -11 -8 -30 5 -20 12 -28 13 -31 4 -3 -9 -9 -9 -24 -1 -27 15 -128 5
-168 -16 -16 -8 -38 -32 -48 -52 l-19 -36 -7 43 c-8 50 3 210 14 210 4 0 11
-11 14 -25 10 -39 39 -49 79 -25 19 11 42 18 51 14 10 -4 31 5 54 22 53 42 78
53 102 47 14 -4 20 -1 18 8 -2 9 11 15 38 19 51 7 99 41 124 88 12 23 19 30
20 19 0 -22 -25 -73 -53 -107 -11 -14 1 -4 26 22 35 35 47 54 47 77 0 16 5 33
12 37 8 5 9 2 5 -9 -3 -10 -2 -17 4 -17 5 0 14 11 19 24 5 15 22 29 43 35 42
14 70 43 92 96 17 41 52 85 68 85 5 0 6 -7 3 -16z m-100 -78 c-9 -14 -26 -30
-38 -37 -16 -9 -13 -2 13 29 36 44 52 48 25 8z m199 -66 c28 -9 27 -10 -10 -5
l-40 6 25 -21 c14 -11 33 -18 42 -16 26 6 32 -11 8 -24 -16 -8 -31 -8 -58 1
-41 13 -102 55 -102 69 0 11 93 5 135 -10z m-385 -62 c0 -39 -86 -118 -127
-118 -13 0 -23 1 -23 3 0 2 21 26 48 54 60 64 102 89 102 61z m465 -8 c3 -5
-3 -10 -15 -10 -12 0 -18 5 -15 10 3 6 10 10 15 10 5 0 12 -4 15 -10z m-763
-17 c25 -22 23 -33 -7 -33 -20 0 -25 5 -25 25 0 29 7 31 32 8z m33 -53 c3 -5
14 -10 25 -10 30 0 30 -26 1 -54 -33 -32 -57 -33 -64 -4 -4 12 -9 19 -12 16
-4 -4 -17 3 -31 14 -22 20 -22 22 -6 34 20 16 78 18 87 4z m-45 -110 c13 -8
13 -10 -2 -10 -9 0 -20 5 -23 10 -8 13 5 13 25 0z m1092 -67 c45 -52 52 -97
51 -307 -2 -181 -8 -196 -74 -196 l-38 0 -6 58 c-3 31 -7 64 -8 72 -1 8 17 34
40 57 49 47 47 43 31 77 -9 20 -14 23 -25 15 -7 -6 -13 -24 -13 -40 0 -16 -4
-29 -8 -29 -5 0 -13 -9 -18 -21 -8 -16 -14 3 -32 95 -25 126 -25 128 30 199
33 41 48 45 70 20z m-1288 -278 c3 -8 1 -15 -4 -15 -6 0 -10 7 -10 15 0 8 2
15 4 15 2 0 6 -7 10 -15z m1236 -523 c23 -204 16 -265 -40 -392 -21 -47 -67
-150 -102 -230 -36 -80 -73 -163 -83 -185 -9 -22 -21 -48 -26 -57 -5 -10 -9
-27 -9 -38 0 -21 -35 -29 -42 -10 -4 14 -117 -63 -145 -99 -21 -27 -23 -35
-13 -70 6 -22 8 -58 4 -80 -4 -28 -3 -41 5 -41 6 0 11 9 11 19 0 11 11 28 25
39 40 31 93 116 97 153 2 19 8 32 13 29 16 -8 7 -54 -30 -161 -45 -128 -42
-124 -127 -207 -40 -39 -70 -74 -66 -77 3 -3 29 16 57 43 44 42 51 46 51 28 0
-23 -123 -520 -183 -741 -20 -71 -41 -156 -47 -187 -6 -32 -15 -60 -20 -63
-18 -11 -140 -21 -143 -12 -1 5 4 64 12 131 10 85 14 234 14 499 0 207 4 377
8 377 4 0 10 -7 13 -16 4 -9 8 -15 11 -13 4 5 2 25 -34 262 -12 77 -21 160
-21 186 0 26 -11 80 -24 119 -33 97 -59 278 -50 348 3 30 8 53 10 52 1 -2 8
-30 13 -63 24 -135 40 -195 75 -285 49 -123 57 -138 100 -186 20 -21 36 -44
36 -50 0 -13 -54 -25 -107 -25 -19 0 -33 -6 -33 -13 0 -20 97 -110 102 -94 3
7 8 10 12 6 4 -3 3 -15 -3 -26 -8 -15 -7 -23 3 -32 12 -9 15 -6 18 17 2 15 7
27 13 27 15 -2 46 -64 39 -77 -5 -9 -4 -9 5 -1 10 9 10 17 2 33 -9 16 -9 21 0
21 6 0 9 7 5 15 -3 9 0 15 10 15 8 0 12 -5 8 -11 -4 -7 1 -10 12 -7 12 2 20
13 22 31 4 32 -16 63 -31 48 -10 -10 -38 -3 -50 13 -4 6 -5 -1 -1 -16 4 -18 2
-28 -5 -28 -6 0 -11 4 -11 9 0 5 -2 15 -5 23 -3 7 -1 19 4 27 8 12 12 13 25 1
27 -22 28 -4 2 26 -13 16 -34 47 -46 69 -12 22 -30 54 -40 70 -43 69 -12 92
42 32 37 -41 37 -41 38 -16 0 35 -70 138 -125 186 -43 37 -45 41 -70 153 -14
63 -31 129 -36 145 -25 72 -8 79 51 21 l40 -39 93 1 c111 1 181 15 222 47 17
13 48 30 69 39 23 9 82 60 145 124 109 109 157 186 192 300 7 23 14 40 16 38
2 -2 13 -81 23 -174z m39 -52 c0 -10 -3 -8 -9 5 -12 27 -12 43 0 25 5 -8 9
-22 9 -30z m-1349 -250 c-14 -4 -35 -13 -47 -21 -24 -15 -36 -10 -28 12 3 9
22 14 53 15 35 1 40 0 22 -6z m85 0 c3 -5 -3 -10 -15 -10 -12 0 -18 5 -15 10
3 6 10 10 15 10 5 0 12 -4 15 -10z m2275 -20 c0 -5 -2 -10 -4 -10 -3 0 -8 5
-11 10 -3 6 -1 10 4 10 6 0 11 -4 11 -10z m-2556 -9 c8 -12 -113 -60 -158 -63
-40 -2 -59 10 -47 31 7 10 13 11 29 2 16 -9 23 -8 29 3 4 8 33 18 63 24 75 13
78 13 84 3z m2833 -97 c0 -10 -7 -9 -31 3 -39 20 -39 20 -31 32 8 14 62 -16
62 -35z m-1662 -535 c-4 -5 -13 -9 -22 -9 -13 0 -13 3 -3 15 13 15 35 11 25
-6z m-28 -61 c-3 -7 -5 -2 -5 12 0 14 2 19 5 13 2 -7 2 -19 0 -25z m-307 -8
c0 -5 -5 -10 -11 -10 -5 0 -7 5 -4 10 3 6 8 10 11 10 2 0 4 -4 4 -10z m-1663
-511 c23 -6 61 -9 85 -6 28 3 67 -2 112 -16 l69 -21 -39 -13 c-42 -15 -159 -9
-181 9 -7 5 -18 6 -25 2 -7 -4 -25 -7 -41 -6 -25 2 -28 0 -21 -20 9 -30 16
-36 21 -20 4 9 12 6 27 -11 15 -16 38 -26 70 -30 44 -6 106 -39 106 -55 0 -4
-26 -8 -57 -9 -32 -1 -94 -4 -138 -6 -91 -3 -134 -22 -167 -74 -18 -30 -24
-33 -68 -33 -48 0 -71 12 -50 25 8 5 6 14 -4 30 -14 22 -13 25 27 61 23 22 46
38 51 36 4 -2 6 4 2 13 -4 11 2 19 18 25 17 6 26 18 28 37 2 17 11 32 26 38
13 6 22 19 22 32 0 35 26 37 127 12z m154 -306 c23 -36 19 -53 -14 -53 -20 0
-20 0 -1 -16 11 -9 13 -13 4 -10 -8 2 -32 10 -52 17 -30 9 -38 17 -38 36 0 22
-3 23 -87 24 -92 1 -145 10 -127 22 6 3 28 2 48 -4 31 -9 44 -7 77 10 22 12
46 21 55 21 8 0 13 4 10 9 -3 4 19 1 50 -7 43 -12 59 -23 75 -49z m-584 -140
c-3 -10 -5 -4 -5 12 0 17 2 24 5 18 2 -7 2 -21 0 -30z m10 -55 c-3 -7 -5 -2
-5 12 0 14 2 19 5 13 2 -7 2 -19 0 -25z m-117 -13 c-7 -8 -20 -15 -29 -15 -9
0 -27 -10 -41 -21 -14 -11 -20 -18 -13 -15 14 7 43 -3 43 -15 0 -4 -7 -6 -15
-3 -8 4 -23 3 -32 0 -15 -6 -15 -8 -3 -16 11 -7 8 -11 -15 -20 -17 -6 -38 -19
-48 -28 -34 -30 -77 -119 -101 -209 -31 -118 -45 -144 -46 -86 0 50 15 119 41
188 10 28 19 55 19 61 0 6 9 19 21 30 11 10 25 28 31 39 15 32 -77 -72 -98
-110 -17 -32 -34 -46 -34 -27 0 15 104 144 129 159 14 9 36 25 48 36 12 10 50
33 85 51 61 31 83 31 58 1z m50 -55 c0 -5 -5 -10 -11 -10 -5 0 -7 5 -4 10 3 6
8 10 11 10 2 0 4 -4 4 -10z m137 -10 c103 0 121 -13 241 -170 31 -41 65 -83
75 -93 13 -13 17 -26 12 -47 -8 -36 5 -44 100 -60 106 -18 118 -18 130 6 26
51 36 56 100 51 55 -4 66 -1 135 34 129 67 309 133 365 133 63 0 182 -60 275
-139 69 -58 112 -73 193 -69 27 1 50 4 51 6 2 1 13 22 25 45 34 69 49 74 176
63 107 -9 183 -27 213 -52 35 -30 85 -120 114 -208 28 -84 32 -109 33 -222 l2
-128 -59 0 c-54 0 -62 3 -94 34 -19 19 -45 34 -57 34 -12 -1 -36 1 -53 3 -29
3 -31 5 -21 26 15 33 1 40 -31 15 -64 -52 -114 -61 -427 -81 -87 -6 -154 -15
-177 -25 -42 -18 -143 -21 -183 -6 -32 12 -41 35 -28 71 14 37 4 37 -31 0 -24
-25 -32 -28 -59 -20 -17 5 -42 22 -55 39 -16 20 -32 30 -51 30 -36 0 -49 17
-96 118 -21 45 -41 82 -45 82 -7 0 -23 -34 -35 -76 -6 -24 -62 -52 -74 -38 -4
5 -13 38 -19 72 -6 35 -16 70 -22 77 -6 7 -34 16 -63 20 -29 3 -76 11 -105 16
-61 12 -102 6 -102 -16 0 -8 -13 -21 -29 -30 -45 -23 -46 -34 -4 -28 30 4 46
-1 76 -21 21 -14 51 -33 67 -41 54 -28 33 -89 -44 -131 -43 -24 -62 -29 -119
-28 -38 1 -79 7 -92 14 -19 10 -37 8 -111 -14 -116 -34 -255 -36 -324 -5 -71
32 -105 64 -154 143 -48 76 -101 196 -87 196 5 0 11 13 14 29 4 16 27 74 52
128 71 151 157 229 283 254 34 7 62 18 63 24 0 5 3 4 6 -2 3 -8 23 -13 50 -13z
m2179 -217 c-10 -10 -19 5 -10 18 6 11 8 11 12 0 2 -7 1 -15 -2 -18z m-56 -17
c0 -2 -7 -7 -16 -10 -8 -3 -12 -2 -9 4 6 10 25 14 25 6z"/>
<path d="M2795 3855 c-84 -16 -140 -38 -154 -62 -6 -10 -11 -12 -11 -5 0 17
-20 15 -20 -3 0 -8 -3 -14 -7 -14 -38 6 -46 -33 -12 -52 18 -9 33 -5 94 25
115 57 246 82 320 62 29 -8 29 -7 9 7 -17 13 -137 59 -146 56 -2 0 -34 -7 -73
-14z"/>
<path d="M2745 3716 c-39 -12 -125 -55 -115 -57 3 0 14 -2 25 -4 11 -2 31 6
45 19 14 13 40 28 59 35 43 14 141 14 178 0 23 -8 26 -8 15 3 -18 18 -157 21
-207 4z"/>
<path d="M2752 3683 c-32 -15 -92 -76 -92 -92 0 -5 12 -6 26 -3 19 3 22 7 12
13 -10 7 -6 14 17 33 l30 24 17 -29 c12 -20 26 -29 43 -29 28 0 65 32 65 55 0
8 9 15 20 15 22 0 26 -20 8 -38 -7 -7 -8 -12 -4 -12 5 0 24 15 42 34 l33 33
-46 7 c-76 10 -136 6 -171 -11z"/>
<path d="M2357 3650 c-52 -9 -56 -17 -11 -26 49 -9 104 -41 114 -68 9 -21 9
-20 9 2 1 33 -24 77 -51 88 -13 6 -40 7 -61 4z"/>
<path d="M2205 3608 c-42 -23 -56 -40 -44 -55 9 -10 8 -13 -5 -13 -25 0 -19
-19 9 -30 14 -5 25 -13 25 -18 0 -10 86 -10 96 1 4 4 -1 7 -12 7 -11 0 -30 7
-42 16 -22 15 -22 17 -6 35 23 25 33 24 44 -5 5 -13 18 -27 30 -31 26 -8 66
16 75 45 8 25 26 22 40 -8 10 -22 25 -30 25 -14 0 12 -22 37 -50 56 -28 18
-83 21 -128 5 -17 -6 -37 -9 -44 -6 -7 2 3 9 22 15 29 8 31 10 10 11 -14 0
-34 -5 -45 -11z"/>
<path d="M2608 3294 c-41 -22 -34 -34 13 -20 22 7 40 16 40 22 0 15 -24 14
-53 -2z"/>
<path d="M2454 3264 c5 -13 2 -15 -14 -11 -14 3 -20 1 -17 -6 2 -7 21 -13 43
-15 21 -2 43 -8 49 -13 5 -5 15 -9 22 -9 7 0 -4 16 -26 35 -41 37 -67 46 -57
19z"/>
<path d="M2668 3263 c7 -3 16 -2 19 1 4 3 -2 6 -13 5 -11 0 -14 -3 -6 -6z"/>
<path d="M2658 3136 c-15 -8 -29 -12 -32 -9 -3 3 -11 1 -18 -5 -22 -17 -24
-18 -42 -2 -27 21 -76 13 -118 -20 -20 -17 -42 -30 -47 -30 -6 0 -11 -4 -11
-10 0 -5 4 -10 9 -10 6 0 31 -18 56 -40 27 -24 57 -40 73 -41 50 -2 97 2 134
12 63 16 51 26 -20 16 -64 -8 -147 -5 -158 6 -3 3 0 14 7 26 10 14 28 22 69
27 30 4 79 15 109 25 30 11 67 19 83 19 40 0 118 20 118 31 0 4 -19 7 -42 6
-24 -1 -65 2 -93 6 -36 5 -57 4 -77 -7z"/>
<path d="M2244 3973 c10 -11 56 -11 50 -1 -3 4 -17 8 -31 8 -15 0 -23 -3 -19
-7z"/>
<path d="M3290 3760 c0 -5 5 -10 10 -10 6 0 10 5 10 10 0 6 -4 10 -10 10 -5 0
-10 -4 -10 -10z"/>
<path d="M3316 3725 c4 -8 8 -15 10 -15 2 0 4 7 4 15 0 8 -4 15 -10 15 -5 0
-7 -7 -4 -15z"/>
<path d="M2470 2208 c0 -7 5 -20 10 -28 8 -13 10 -12 10 3 0 9 0 20 1 24 0 4
-4 9 -10 11 -6 2 -11 -2 -11 -10z"/>
<path d="M2766 1874 c-4 -9 -4 -19 -1 -22 2 -3 7 3 11 12 4 9 4 19 1 22 -2 3
-7 -3 -11 -12z"/>
<path d="M2727 1573 c-4 -3 -7 -16 -6 -27 0 -19 1 -19 10 3 10 24 8 36 -4 24z"/>
<path d="M2788 1533 c7 -3 16 -2 19 1 4 3 -2 6 -13 5 -11 0 -14 -3 -6 -6z"/>
<path d="M842 1384 c-6 -7 -19 -11 -27 -8 -17 7 -19 -10 -5 -41 9 -19 9 -19
16 3 5 18 12 23 30 19 21 -4 22 -2 12 17 -6 12 -11 22 -12 22 0 1 -7 -4 -14
-12z"/>
<path d="M798 1303 c-16 -2 -28 -11 -28 -18 0 -8 -9 -19 -20 -25 -11 -6 -18
-15 -15 -21 4 -5 25 5 48 23 57 43 63 48 52 47 -6 -1 -22 -4 -37 -6z"/>
<path d="M2390 628 c-19 -5 -41 -16 -49 -23 -24 -23 29 -61 96 -70 49 -6 57
-10 75 -41 11 -19 22 -33 25 -31 7 8 -38 111 -63 145 -27 34 -31 35 -84 20z"/>
<path d="M2675 100 c3 -5 27 -10 53 -9 38 1 42 2 22 9 -37 12 -82 12 -75 0z"/>
</g>
</svg>
