<?xml version="1.0" standalone="no"?>
<!DOCTYPE svg PUBLIC "-//W3C//DTD SVG 20010904//EN"
 "http://www.w3.org/TR/2001/REC-SVG-20010904/DTD/svg10.dtd">
<svg version="1.0" xmlns="http://www.w3.org/2000/svg"
 width="900.000000pt" height="800.000000pt" viewBox="0 0 900.000000 800.000000"
 preserveAspectRatio="xMidYMid meet">

<g transform="translate(0.000000,800.000000) scale(0.100000,-0.100000)"
fill="#000000" stroke="none">
<path d="M5802 5300 c-60 -7 -108 -32 -96 -51 3 -5 -1 -9 -10 -9 -19 0 -71
-67 -95 -122 -16 -36 -18 -55 -11 -118 8 -73 44 -180 61 -180 5 0 9 23 9 50 0
54 8 62 28 30 21 -33 69 -26 107 16 19 20 38 48 45 63 6 14 25 36 43 48 17 12
55 38 82 57 59 42 66 43 133 15 49 -21 51 -23 87 -108 67 -161 63 -157 66 -66
3 119 -1 167 -16 198 -8 15 -11 35 -8 43 3 8 -2 29 -11 48 -12 26 -24 35 -53
41 -20 4 -55 16 -77 27 -33 17 -45 19 -75 9 -26 -8 -37 -7 -42 1 -9 14 -82 17
-167 8z"/>
<path d="M5997 4872 c-25 -15 -27 -21 -22 -52 11 -60 31 -82 73 -78 24 2 37 8
38 18 1 8 2 21 3 28 1 8 8 11 19 8 24 -8 46 9 39 28 -4 10 -18 16 -38 16 -41
0 -33 24 9 28 54 5 25 22 -36 21 -34 0 -68 -8 -85 -17z"/>
<path d="M5772 4841 c-24 -4 -52 -17 -64 -29 -32 -31 -10 -76 48 -98 75 -29
164 5 151 57 -17 61 -58 83 -135 70z"/>
<path d="M5640 4758 c0 -7 5 -20 10 -28 8 -12 10 -9 10 13 0 15 -4 27 -10 27
-5 0 -10 -6 -10 -12z"/>
<path d="M5650 4653 c0 -17 5 -35 10 -38 6 -3 10 -17 10 -31 0 -25 25 -88 61
-155 10 -20 19 -45 19 -55 0 -28 -57 -113 -83 -124 -12 -6 -29 -14 -37 -20 -8
-5 -37 -19 -65 -31 -27 -12 -59 -29 -70 -39 -11 -10 -42 -27 -70 -38 -51 -21
-200 -65 -223 -65 -16 0 -57 -56 -64 -87 -4 -14 -22 -88 -41 -165 -19 -77 -44
-196 -56 -265 -12 -69 -26 -145 -31 -170 -23 -120 -42 -210 -56 -262 -8 -32
-14 -77 -14 -100 -1 -24 -7 -61 -15 -83 -30 -84 -30 -126 4 -290 20 -97 65
-234 88 -271 8 -12 25 -57 39 -100 14 -44 31 -86 38 -94 7 -8 31 -56 55 -106
l42 -91 -11 -129 c-6 -71 -15 -160 -20 -199 -22 -164 -9 -286 35 -335 7 -8 15
-44 18 -80 24 -330 30 -403 58 -635 7 -55 13 -170 13 -255 1 -153 0 -156 -31
-225 -55 -122 -84 -110 268 -113 l307 -2 6 52 c3 29 10 123 16 209 5 85 16
182 25 214 8 33 15 67 15 77 0 10 4 18 9 18 11 0 21 -61 21 -138 0 -34 7 -106
16 -159 8 -53 14 -135 12 -182 l-3 -86 252 -3 c283 -3 265 -7 276 73 27 188
43 264 72 351 19 55 41 140 50 190 9 49 23 123 31 164 7 41 20 118 29 170 8
52 24 129 35 170 11 41 20 88 20 103 0 16 7 44 16 63 15 31 20 34 53 32 50 -2
61 7 61 53 0 24 5 40 13 41 16 2 47 5 73 7 19 1 21 5 15 34 -12 53 -30 77 -61
84 -47 9 -53 24 -32 79 l18 49 54 -1 c30 0 92 -4 137 -9 l81 -8 8 49 c3 27 11
60 16 74 25 66 43 279 40 485 -2 214 -12 327 -37 425 -8 30 -21 147 -29 260
-26 337 -36 451 -41 460 -8 12 -43 303 -51 415 -7 106 -41 234 -72 271 -22 27
-66 49 -112 59 -19 3 -55 15 -79 26 -24 11 -49 18 -57 15 -7 -3 -20 1 -28 9
-8 8 -19 15 -24 15 -6 0 -37 14 -70 30 -34 17 -68 30 -76 30 -31 0 -137 66
-191 119 l-55 54 -1 81 c-1 45 -4 68 -6 51 -5 -34 -39 -85 -56 -85 -7 0 -17
-10 -22 -22 -6 -13 -19 -25 -29 -26 -11 -2 -34 -19 -51 -38 -32 -33 -34 -34
-116 -35 -110 -2 -111 -2 -135 25 -11 13 -31 26 -45 29 -14 3 -50 35 -80 71
-46 53 -57 73 -63 113 -8 61 -26 92 -26 46z m618 -262 c3 -112 -14 -152 -84
-192 -35 -19 -72 -32 -104 -34 -62 -5 -72 8 -20 24 58 17 111 66 108 100 -1
16 9 41 24 62 14 19 36 53 48 77 13 23 24 42 25 42 0 0 2 -36 3 -79z m-95
-277 c18 -25 18 -25 -17 -64 -20 -22 -36 -45 -36 -50 0 -6 -7 -10 -17 -10 -21
0 -123 48 -123 59 0 17 37 41 100 64 36 14 67 25 70 26 3 0 13 -11 23 -25z
m-550 -2049 c29 -13 64 -37 78 -52 32 -35 84 -126 104 -184 9 -24 23 -51 32
-61 19 -22 6 -23 -21 -3 -50 38 -40 -6 12 -51 40 -34 37 -54 -9 -54 -20 0 -29
5 -29 16 0 13 -7 15 -35 11 -33 -5 -38 -3 -75 44 -58 74 -59 39 -1 -40 28 -38
51 -73 51 -79 0 -10 -32 -22 -62 -22 -10 0 -39 27 -65 59 -26 33 -50 58 -54
55 -4 -2 6 -29 23 -59 16 -30 28 -60 26 -65 -5 -15 -68 34 -90 69 -11 16 -37
39 -60 50 -75 37 -123 185 -84 259 31 60 131 131 184 132 13 0 47 -11 75 -25z
m1239 -265 c1 -38 2 -82 2 -97 1 -18 -5 -29 -16 -31 -15 -3 -17 8 -17 97 0 83
2 101 14 101 12 0 15 -16 17 -70z"/>
<path d="M5690 1913 c0 -22 17 -49 25 -41 8 8 -5 58 -16 58 -5 0 -9 -8 -9 -17z"/>
<path d="M5740 1822 c0 -5 7 -16 16 -23 14 -12 16 -11 13 5 -4 20 -29 35 -29
18z"/>
<path d="M5985 4610 c-3 -5 3 -10 14 -10 12 0 21 5 21 10 0 6 -6 10 -14 10 -8
0 -18 -4 -21 -10z"/>
<path d="M5877 4604 c-3 -3 -1 -17 6 -31 9 -21 16 -24 40 -19 16 3 33 6 38 6
23 0 5 27 -24 38 -37 13 -51 15 -60 6z"/>
<path d="M6089 4546 c-2 -2 -42 -7 -89 -10 -47 -3 -98 -9 -115 -12 -57 -13
-75 -44 -26 -44 20 0 36 -9 49 -25 22 -27 67 -34 103 -14 27 14 15 29 -24 29
-18 0 -39 5 -47 10 -12 8 -9 10 12 10 15 0 30 5 33 10 3 6 21 10 39 10 51 0
97 11 93 23 -4 12 -21 20 -28 13z"/>
<path d="M7100 1405 c-9 -11 -22 -14 -41 -10 -34 8 -69 -23 -69 -60 0 -16 -11
-36 -27 -50 l-28 -24 27 -1 c20 0 38 13 72 52 25 29 46 56 46 60 0 5 6 8 13 8
7 0 18 9 25 20 14 23 0 27 -18 5z"/>
</g>
</svg>
